<svg version="1.1" xmlns="http://www.w3.org/2000/svg" viewBox="0 0 1715.9882108738843 158.5" width="1715.9882108738843" height="158.5">
  <!-- svg-source:excalidraw -->
  
  <defs>
    <style class="style-fonts">
      @font-face {
        font-family: "Virgil";
        src: url("https://cdn.jsdelivr.net/gh/max32002/max-hana@1.1/webfont/HanaMinA.woff2");
      }
      @font-face {
        font-family: "Cascadia";
        src: url("https://excalidraw.com/Cascadia.woff2");
      }
    </style>
    
  </defs>
  <rect x="0" y="0" width="1715.9882108738843" height="158.5" fill="#ffffff"></rect><g stroke-linecap="round" transform="translate(146.10284378789362 35.5) rotate(0 146 56.5)"><path d="M28.25 0 M28.25 0 C96.56 1.98, 161.9 -0.48, 263.75 0 M28.25 0 C80.17 0.43, 130.88 0.36, 263.75 0 M263.75 0 C282.66 -1.19, 291.94 7.5, 292 28.25 M263.75 0 C284.43 -1.08, 290.9 10, 292 28.25 M292 28.25 C293.36 51.42, 291.78 70.14, 292 84.75 M292 28.25 C291.91 43.89, 292.82 57.79, 292 84.75 M292 84.75 C290.42 102.63, 283.73 111.9, 263.75 113 M292 84.75 C293.98 104.88, 284.52 113.77, 263.75 113 M263.75 113 C205.05 113.6, 144.47 112.47, 28.25 113 M263.75 113 C213.86 112.31, 162.23 112.25, 28.25 113 M28.25 113 C10.18 114.36, -0.84 103.18, 0 84.75 M28.25 113 C10.06 111.1, -1.84 105.22, 0 84.75 M0 84.75 C0.1 62.6, -0.65 41.85, 0 28.25 M0 84.75 C-0.19 64.87, -0.88 46.23, 0 28.25 M0 28.25 C0.86 9.74, 8.61 -1.18, 28.25 0 M0 28.25 C0.25 8.28, 8.98 0.32, 28.25 0" stroke="#000000" stroke-width="1" fill="none"></path></g><g transform="translate(187.51300003789362 69.5) rotate(0 104.58984375 22.5)"><text x="104.58984375" y="0" font-family="Virgil, Segoe UI Emoji" font-size="36px" fill="#000000" text-anchor="middle" style="white-space: pre;" direction="ltr" dominant-baseline="text-before-edge">FindUserById</text></g><g mask="url(#mask-cW7Ji_tzKB9_Agxp0HDBU)" stroke-linecap="round"><g transform="translate(11.102843787893676 92.5) rotate(0 65.52685596086081 0.11048729645955291)"><path d="M-1.1 -0.97 C20.81 -0.93, 110.06 -0.69, 132.16 -0.71 M0.52 1.13 C22.32 1.41, 110.07 0.7, 131.82 0.47" stroke="#000000" stroke-width="1" fill="none"></path></g><g transform="translate(11.102843787893676 92.5) rotate(0 65.52685596086081 0.11048729645955291)"><path d="M102.1 12.9 C112.6 8.34, 122 2.6, 129.93 0.55 M104.52 10.5 C110 8.97, 118.11 6.68, 132.56 1" stroke="#000000" stroke-width="1" fill="none"></path></g><g transform="translate(11.102843787893676 92.5) rotate(0 65.52685596086081 0.11048729645955291)"><path d="M101.91 -7.62 C112.32 -4.9, 121.79 -3.37, 129.93 0.55 M104.34 -10.02 C109.86 -6.61, 118.01 -3.96, 132.56 1" stroke="#000000" stroke-width="1" fill="none"></path></g></g><mask id="mask-cW7Ji_tzKB9_Agxp0HDBU"><rect x="0" y="0" fill="#fff" width="242.10284378789365" height="192.50573618235057"></rect><rect x="58.602843787893676" y="69.99713190882471" fill="#000" width="36" height="45" opacity="1"></rect></mask><g transform="translate(58.602843787893676 69.99713190882471) rotate(0 18.026855960860814 22.61335538763484)"><text x="18" y="0" font-family="Virgil, Segoe UI Emoji" font-size="36px" fill="#000000" text-anchor="middle" style="white-space: pre;" direction="ltr" dominant-baseline="text-before-edge">id</text></g><g mask="url(#mask-N05WZGSffcSve0NVNQ-We)" stroke-linecap="round"><g transform="translate(439.1028437878938 60.075933075933335) rotate(0 313.7495442669479 0.05169557795414903)"><path d="M0.5 -1.03 C26.83 -0.93, 54.53 -0.19, 159.15 -0.06 C263.76 0.06, 550.03 -0.18, 628.19 -0.29 M-0.69 1.04 C25.93 1.31, 56.8 0.94, 161.49 0.88 C266.18 0.82, 549.64 0.84, 627.45 0.66" stroke="#000000" stroke-width="1" fill="none"></path></g><g transform="translate(439.1028437878938 60.075933075933335) rotate(0 313.7495442669479 0.05169557795414903)"><path d="M597.55 9.76 C608.62 6.83, 620.48 2.6, 625.53 2.26 M600.13 11.44 C607.2 8.81, 614.25 5.42, 626.57 0.34" stroke="#000000" stroke-width="1" fill="none"></path></g><g transform="translate(439.1028437878938 60.075933075933335) rotate(0 313.7495442669479 0.05169557795414903)"><path d="M597.53 -10.76 C608.48 -5.56, 620.36 -1.65, 625.53 2.26 M600.11 -9.08 C607.08 -6.52, 614.14 -4.72, 626.57 0.34" stroke="#000000" stroke-width="1" fill="none"></path></g></g><mask id="mask-N05WZGSffcSve0NVNQ-We"><rect x="0" y="0" fill="#fff" width="1167.245700930751" height="285.07593307593334"></rect><rect x="466.0095332683695" y="38.64398326898515" fill="#000" width="265.8961181640625" height="45" opacity="1"></rect></mask><g transform="translate(466.0095332683695 38.64398326898515) rotate(0 286.8428547864722 21.48364538490233)"><text x="132.94805908203125" y="0" font-family="Virgil, Segoe UI Emoji" font-size="36px" fill="#1e1e1e" text-anchor="middle" style="white-space: pre;" direction="ltr" dominant-baseline="text-before-edge">Some UserDTO</text></g><g mask="url(#mask-mmg3Vgk4a43VOoTeHxIXS)" stroke-linecap="round"><g transform="translate(439.10284378789373 123.0070290315848) rotate(0 178.87784690099969 -0.026499831275373253)"><path d="M0.05 -0.71 C60.02 -0.79, 299.13 -1.54, 359.14 -1.59 M-1.39 1.53 C58.49 1.65, 297.96 -0.4, 358.17 -0.65" stroke="#000000" stroke-width="1" fill="none"></path></g><g transform="translate(439.10284378789373 123.0070290315848) rotate(0 178.87784690099969 -0.026499831275373253)"><path d="M328.86 9.73 C335 8.87, 342.76 3.79, 358.68 1.07 M330.72 9.54 C338.93 5.68, 349.62 2.52, 358.09 -0.2" stroke="#000000" stroke-width="1" fill="none"></path></g><g transform="translate(439.10284378789373 123.0070290315848) rotate(0 178.87784690099969 -0.026499831275373253)"><path d="M328.73 -10.8 C334.71 -6.71, 342.5 -6.85, 358.68 1.07 M330.59 -10.98 C339 -7.67, 349.74 -3.65, 358.09 -0.2" stroke="#000000" stroke-width="1" fill="none"></path></g></g><mask id="mask-mmg3Vgk4a43VOoTeHxIXS"><rect x="0" y="0" fill="#fff" width="898.2829539684247" height="223.44262949174095"></rect><rect x="580.1089145031592" y="100.28922880150674" fill="#000" width="77.16796875" height="45" opacity="1"></rect></mask><g transform="translate(580.1089145031592 100.28922880150674) rotate(0 37.87177618573418 22.691300398802696)"><text x="38.583984375" y="0" font-family="Virgil, Segoe UI Emoji" font-size="36px" fill="#000000" text-anchor="middle" style="white-space: pre;" direction="ltr" dominant-baseline="text-before-edge">None</text></g><g stroke-linecap="round" transform="translate(1070.3097621742543 10) rotate(0 147 56.5)"><path d="M28.25 0 M28.25 0 C97.94 -2.4, 169.63 -0.15, 265.75 0 M28.25 0 C111.88 -1.28, 193.64 -1.33, 265.75 0 M265.75 0 C284.54 0.37, 293.84 10.32, 294 28.25 M265.75 0 C286.5 -1.95, 292.19 8.32, 294 28.25 M294 28.25 C294.81 50.12, 294.35 67.69, 294 84.75 M294 28.25 C294.01 40.42, 293.33 51.92, 294 84.75 M294 84.75 C295.14 102.17, 285.91 114.69, 265.75 113 M294 84.75 C292.28 105.38, 285.46 114.56, 265.75 113 M265.75 113 C203.06 112.21, 144.34 114.85, 28.25 113 M265.75 113 C210.89 112.27, 156.61 113.12, 28.25 113 M28.25 113 C10.91 114.18, 0.46 103.32, 0 84.75 M28.25 113 C8.37 115.24, 0.99 103.95, 0 84.75 M0 84.75 C-0.65 69.7, 0.62 56.82, 0 28.25 M0 84.75 C0.78 61.84, 1.17 40.27, 0 28.25 M0 28.25 C-1.35 8.51, 11.26 -1.44, 28.25 0 M0 28.25 C0.45 10.68, 8.88 -0.83, 28.25 0" stroke="#000000" stroke-width="1" fill="none"></path></g><g transform="translate(1117.641793424254 44) rotate(0 99.66796875 22.5)"><text x="99.66796875" y="0" font-family="Virgil, Segoe UI Emoji" font-size="36px" fill="#000000" text-anchor="middle" style="white-space: pre;" direction="ltr" dominant-baseline="text-before-edge">GetFromDTO</text></g><g mask="url(#mask-Gdm9JQumZ0cVErtQAHWrr)" stroke-linecap="round"><g transform="translate(1364.309762174254 40) rotate(0 170.72437650489223 2.23398193793372)"><path d="M0.81 -0.3 C57.24 0.36, 282.9 3.71, 339.52 4.63 M-0.23 -1.5 C56.49 -0.72, 285.01 4.61, 341.68 5.97" stroke="#000000" stroke-width="1" fill="none"></path></g><g transform="translate(1364.309762174254 40) rotate(0 170.72437650489223 2.23398193793372)"><path d="M312.76 13.81 C323.23 11.74, 334.88 8.03, 342.58 7.63 M313.83 15.02 C320.31 14.2, 326.41 11.9, 341.21 5.14" stroke="#000000" stroke-width="1" fill="none"></path></g><g transform="translate(1364.309762174254 40) rotate(0 170.72437650489223 2.23398193793372)"><path d="M313.24 -6.7 C323.64 -1.09, 335.11 2.89, 342.58 7.63 M314.31 -5.5 C320.52 -1.91, 326.52 0.22, 341.21 5.14" stroke="#000000" stroke-width="1" fill="none"></path></g></g><mask id="mask-Gdm9JQumZ0cVErtQAHWrr"><rect x="0" y="0" fill="#fff" width="1804.8811907456827" height="145"></rect><rect x="1449.3591483349683" y="20" fill="#000" width="170.47265625" height="45" opacity="1"></rect></mask><g transform="translate(1449.3591483349683 20) rotate(0 85.67499034417801 22.23398193793372)"><text x="85.236328125" y="0" font-family="Virgil, Segoe UI Emoji" font-size="36px" fill="#000000" text-anchor="middle" style="white-space: pre;" direction="ltr" dominant-baseline="text-before-edge">Some User</text></g><g mask="url(#mask-L4gGLTMQaDPcNeUrQpFd_)" stroke-linecap="round"><g transform="translate(1362.7755866404996 97.5) rotate(0 168.7760468437163 0.4190930903226331)"><path d="M-0.02 0.22 C56.66 0.54, 282.35 1.58, 339.05 1.54 M-1.5 -0.7 C55.11 -0.71, 281.15 -0.54, 338.05 -0.3" stroke="#000000" stroke-width="1" fill="none"></path></g><g transform="translate(1362.7755866404996 97.5) rotate(0 168.7760468437163 0.4190930903226331)"><path d="M310.21 9.74 C316.76 9.41, 320.15 4, 337.1 0.85 M310.68 10.23 C316.19 6.41, 324.15 5.26, 337.73 -0.39" stroke="#000000" stroke-width="1" fill="none"></path></g><g transform="translate(1362.7755866404996 97.5) rotate(0 168.7760468437163 0.4190930903226331)"><path d="M310.26 -10.78 C316.73 -6.76, 320.12 -7.81, 337.1 0.85 M310.72 -10.29 C316.4 -9.08, 324.35 -5.21, 337.73 -0.39" stroke="#000000" stroke-width="1" fill="none"></path></g></g><mask id="mask-L4gGLTMQaDPcNeUrQpFd_"><rect x="0" y="0" fill="#fff" width="1801.9184437833567" height="198.5"></rect><rect x="1493.763030836928" y="75.5" fill="#000" width="77.16796875" height="45" opacity="1"></rect></mask><g transform="translate(1493.763030836928 75.5) rotate(0 37.788602647287746 22.419093090322633)"><text x="38.583984375" y="0" font-family="Virgil, Segoe UI Emoji" font-size="36px" fill="#000000" text-anchor="middle" style="white-space: pre;" direction="ltr" dominant-baseline="text-before-edge">None</text></g><g stroke-linecap="round" transform="translate(853.9575923504008 32.14398326898515) rotate(0 75 32.5)"><path d="M15.11 -0.18 L141.09 2.93 L146.98 7.91 L150.41 13.53 L150.92 57.25 L144.22 61.46 L135.1 66.5 L8.72 62.86 L2.62 60.34 L1.98 51.67 L-1.63 11.86 L1.7 5.07 L4.63 4.03 L17.67 -1.43" stroke="none" stroke-width="0" fill="#ffffff"></path><path d="M16.25 0 M16.25 0 C57.3 1.45, 96.6 -1.18, 133.75 0 M16.25 0 C43 0.74, 70.87 0.01, 133.75 0 M133.75 0 C145.77 -1.06, 148.6 5, 150 16.25 M133.75 0 C146.33 -2.17, 151.59 6.53, 150 16.25 M150 16.25 C152.09 23.95, 149.84 30.98, 150 48.75 M150 16.25 C150.46 23.89, 149.8 30.06, 150 48.75 M150 48.75 C150.21 58.71, 145.97 63.32, 133.75 65 M150 48.75 C148.38 58.84, 146.04 64.74, 133.75 65 M133.75 65 C99.33 64.87, 67.85 64.28, 16.25 65 M133.75 65 C90.93 64.27, 47.76 64.7, 16.25 65 M16.25 65 C5.25 66.43, 1.63 58.9, 0 48.75 M16.25 65 C3.46 63.87, -1.66 59.56, 0 48.75 M0 48.75 C-1.72 38.96, -0.2 30.79, 0 16.25 M0 48.75 C-0.69 39.2, -1.22 28.68, 0 16.25 M0 16.25 C-1.87 4.69, 7.26 -0.33, 16.25 0 M0 16.25 C1.57 5.61, 7.63 0.93, 16.25 0" stroke="#ffffff" stroke-width="4" fill="none"></path></g><g transform="translate(918.4107173504008 43.04398326898513) rotate(0 10.546875 21.600000000000023)"><text x="10.546875" y="0" font-family="Cascadia, Segoe UI Emoji" font-size="36px" fill="#ffffff" text-anchor="middle" style="white-space: pre;" direction="ltr" dominant-baseline="text-before-edge">U</text></g><g transform="translate(865.9575923504008 37.14398326898515) rotate(0 81.79203796386719 22.5)"><text x="0" y="0" font-family="Virgil, Segoe UI Emoji" font-size="36px" fill="#1e1e1e" text-anchor="start" style="white-space: pre;" direction="ltr" dominant-baseline="text-before-edge">UserDTO</text></g></svg>
