<svg version="1.1" xmlns="http://www.w3.org/2000/svg" viewBox="0 0 1579.1501479767026 294.9999999999991" width="1579.1501479767026" height="294.9999999999991">
  <!-- svg-source:excalidraw -->
  
  <defs>
    <style class="style-fonts">
      @font-face {
        font-family: "Virgil";
        src: url("https://cdn.jsdelivr.net/gh/max32002/max-hana@1.1/webfont/HanaMinA.woff2");
      }
      @font-face {
        font-family: "Cascadia";
        src: url("https://excalidraw.com/Cascadia.woff2");
      }
    </style>
    
  </defs>
  <rect x="0" y="0" width="1579.1501479767026" height="294.9999999999991" fill="#ffffff"></rect><g stroke-linecap="round" transform="translate(148.10875503880334 17.18591308593659) rotate(0 147 56.5)"><path d="M28.25 0 M28.25 0 C88.76 -2.19, 147.73 -2.33, 265.75 0 M28.25 0 C100.7 -1.57, 171.17 -0.69, 265.75 0 M265.75 0 C282.6 -0.42, 294.28 9.86, 294 28.25 M265.75 0 C283.93 -1, 295.38 7.8, 294 28.25 M294 28.25 C291.88 41.3, 294.86 53.2, 294 84.75 M294 28.25 C293.57 47.35, 292.92 67.37, 294 84.75 M294 84.75 C294.94 103.07, 283.36 111.58, 265.75 113 M294 84.75 C295.02 102.98, 286.61 111.99, 265.75 113 M265.75 113 C171.03 111.22, 76.67 111.05, 28.25 113 M265.75 113 C214.94 111.98, 164.04 111.7, 28.25 113 M28.25 113 C8.63 114.12, 1.47 102.01, 0 84.75 M28.25 113 C8.89 114.07, -1.13 101.6, 0 84.75 M0 84.75 C1.27 67.77, 1.67 50.18, 0 28.25 M0 84.75 C0.15 64.45, 1.2 45.92, 0 28.25 M0 28.25 C1.35 9.09, 9.42 -1.42, 28.25 0 M0 28.25 C1.87 10.63, 8.54 -2.16, 28.25 0" stroke="#000000" stroke-width="1" fill="none"></path></g><g transform="translate(190.51891128880334 51.18591308593659) rotate(0 104.58984375 22.5)"><text x="104.58984375" y="0" font-family="Virgil, Segoe UI Emoji" font-size="36px" fill="#000000" text-anchor="middle" style="white-space: pre;" direction="ltr" dominant-baseline="text-before-edge">FindUserById</text></g><g mask="url(#mask-bicHxp5RJjLcLIetKxzzH)" stroke-linecap="round"><g transform="translate(10.775421705469398 77.85257975260356) rotate(0 66.56062156694657 -1.8412445828322408)"><path d="M-0.78 0.02 C21.65 -0.11, 111.35 -1.32, 133.9 -1.88 M1.02 -1.02 C23.4 -1.41, 111.02 -3.46, 133.24 -3.7" stroke="#000000" stroke-width="1" fill="none"></path></g><g transform="translate(10.775421705469398 77.85257975260356) rotate(0 66.56062156694657 -1.8412445828322408)"><path d="M105.27 8 C113.12 6.59, 117.52 1.23, 133.87 -5.68 M104.96 6.63 C113.64 3.3, 120.05 0.52, 133.11 -4.63" stroke="#000000" stroke-width="1" fill="none"></path></g><g transform="translate(10.775421705469398 77.85257975260356) rotate(0 66.56062156694657 -1.8412445828322408)"><path d="M104.91 -12.52 C112.66 -8.93, 117.14 -9.29, 133.87 -5.68 M104.59 -13.89 C113.4 -11.5, 119.91 -8.55, 133.11 -4.63" stroke="#000000" stroke-width="1" fill="none"></path></g></g><mask id="mask-bicHxp5RJjLcLIetKxzzH"><rect x="0" y="0" fill="#fff" width="244.1087550388031" height="302.85257975260356"></rect><rect x="63.73115087213637" y="54.124660172961285" fill="#000" width="27.421875" height="45" opacity="1"></rect></mask><g transform="translate(63.73115087213637 54.124660172961285) rotate(0 13.604892400279596 21.886674996810036)"><text x="13.7109375" y="0" font-family="Virgil, Segoe UI Emoji" font-size="36px" fill="#000000" text-anchor="middle" style="white-space: pre;" direction="ltr" dominant-baseline="text-before-edge">id</text></g><g stroke-linecap="round"><g transform="translate(443.10875503880334 89.21242656584218) rotate(0 86.50581266353674 62.983729532606)"><path d="M1.18 -0.88 C29.86 20.17, 144.21 105.66, 172.67 126.85 M0.34 1.27 C28.78 21.9, 142.5 103.9, 171.48 124.92" stroke="#ff0000" stroke-width="4" fill="none"></path></g><g transform="translate(443.10875503880334 89.21242656584218) rotate(0 86.50581266353674 62.983729532606)"><path d="M141.16 115.95 C153.3 117.3, 162.27 122.4, 171.93 124.36 M141.82 116.25 C149.94 118.1, 157.8 121.69, 171.56 125.46" stroke="#ff0000" stroke-width="4" fill="none"></path></g><g transform="translate(443.10875503880334 89.21242656584218) rotate(0 86.50581266353674 62.983729532606)"><path d="M153.18 99.32 C161.23 106.56, 166.03 117.43, 171.93 124.36 M153.84 99.62 C158.98 105.65, 163.76 113.51, 171.56 125.46" stroke="#ff0000" stroke-width="4" fill="none"></path></g></g><mask></mask><g stroke-linecap="round" transform="translate(587.9823400918303 21.35257975260447) rotate(0 147 56.5)"><path d="M28.25 0 M28.25 0 C123.38 -0.9, 217.12 1, 265.75 0 M28.25 0 C105.31 0.28, 180.68 0.47, 265.75 0 M265.75 0 C284.31 -1.85, 294.65 10.54, 294 28.25 M265.75 0 C284.76 1.23, 293.5 10.6, 294 28.25 M294 28.25 C291.86 44.41, 293 57.47, 294 84.75 M294 28.25 C295.13 40.76, 295.21 54.04, 294 84.75 M294 84.75 C292.77 102.87, 283.92 112, 265.75 113 M294 84.75 C293.01 101.59, 283.41 111.24, 265.75 113 M265.75 113 C197.59 111.68, 129.47 113.57, 28.25 113 M265.75 113 C212.79 113.2, 160.85 113.71, 28.25 113 M28.25 113 C9.66 114.13, 1.29 105.11, 0 84.75 M28.25 113 C11.7 114.06, -1.26 103.23, 0 84.75 M0 84.75 C0.98 70.06, 0.09 52.67, 0 28.25 M0 84.75 C-0.84 70.87, -0.6 58.98, 0 28.25 M0 28.25 C-1.25 8.88, 10.88 1.69, 28.25 0 M0 28.25 C1.61 10.31, 10.84 -1.39, 28.25 0" stroke="#000000" stroke-width="1" fill="none"></path></g><g transform="translate(635.3143713418303 55.35257975260447) rotate(0 99.66796875 22.5)"><text x="99.66796875" y="0" font-family="Virgil, Segoe UI Emoji" font-size="36px" fill="#000000" text-anchor="middle" style="white-space: pre;" direction="ltr" dominant-baseline="text-before-edge">GetFromDTO</text></g><g stroke-linecap="round"><g transform="translate(882.9823400918308 51.17173550688676) rotate(0 82.06096940338944 -0.3827801029989608)"><path d="M0.17 0.27 C27.92 0.14, 137.62 -0.76, 165.33 -1.03 M-1.21 -0.64 C26.46 -0.59, 136.33 0.2, 164.2 0.23" stroke="#00ff00" stroke-width="4" fill="none"></path></g><g transform="translate(882.9823400918308 51.17173550688676) rotate(0 82.06096940338944 -0.3827801029989608)"><path d="M136.41 9.8 C140.79 9.49, 145.93 4.64, 163.26 -0.05 M136.04 10.9 C141.57 8.62, 147.33 5.13, 163.25 -0.59" stroke="#00ff00" stroke-width="4" fill="none"></path></g><g transform="translate(882.9823400918308 51.17173550688676) rotate(0 82.06096940338944 -0.3827801029989608)"><path d="M136.5 -10.72 C140.82 -6.91, 145.94 -7.63, 163.26 -0.05 M136.13 -9.62 C141.71 -7.65, 147.45 -6.88, 163.25 -0.59" stroke="#00ff00" stroke-width="4" fill="none"></path></g></g><mask></mask><g stroke-linecap="round"><g transform="translate(882.9823400918303 87.89252788767499) rotate(0 85.92391963603473 61.67946689046488)"><path d="M-0.34 -0.52 C28.33 19.9, 143.71 102.19, 172.19 122.79 M1.68 1.82 C30.24 22.35, 143.08 103.5, 171.62 123.88" stroke="#ff0000" stroke-width="4" fill="none"></path></g><g transform="translate(882.9823400918303 87.89252788767499) rotate(0 85.92391963603473 61.67946689046488)"><path d="M141.86 116.99 C150.41 116.8, 159.94 120.67, 169.76 124.53 M142.51 116.31 C152.73 117.65, 162.37 120.58, 172.09 123.63" stroke="#ff0000" stroke-width="4" fill="none"></path></g><g transform="translate(882.9823400918303 87.89252788767499) rotate(0 85.92391963603473 61.67946689046488)"><path d="M153.82 100.32 C158.65 105.33, 164.42 114.43, 169.76 124.53 M154.47 99.63 C160.43 106.98, 165.82 115.85, 172.09 123.63" stroke="#ff0000" stroke-width="4" fill="none"></path></g></g><mask></mask><g stroke-linecap="round"><g transform="translate(445.00706089769983 62.812675305649464) rotate(0 71.03800884574662 0.7454895042337384)"><path d="M1.68 -1.96 C24.77 -1.78, 114.76 -0.19, 137.75 -0.09 M-0.85 3.14 C23.18 3.8, 119.85 3.29, 142.92 2.82" stroke="#00ff00" stroke-width="4" fill="none"></path></g><g transform="translate(445.00706089769983 62.812675305649464) rotate(0 71.03800884574662 0.7454895042337384)"><path d="M112.04 10.17 C120.68 9.62, 126.49 8.6, 145.18 3.12 M114.24 11.64 C122.91 7.71, 135.68 5.11, 141.7 1.4" stroke="#00ff00" stroke-width="4" fill="none"></path></g><g transform="translate(445.00706089769983 62.812675305649464) rotate(0 71.03800884574662 0.7454895042337384)"><path d="M111.82 -10.35 C120.34 -5.33, 126.21 -0.77, 145.18 3.12 M114.01 -8.88 C122.68 -5.56, 135.52 -0.9, 141.7 1.4" stroke="#00ff00" stroke-width="4" fill="none"></path></g></g><mask></mask><g stroke-linecap="round" transform="translate(1052.7975726191785 20.965941112550354) rotate(0 147 56.5)"><path d="M28.25 0 M28.25 0 C112.98 1.37, 197.74 2.14, 265.75 0 M28.25 0 C112.72 -0.63, 197.29 -1.79, 265.75 0 M265.75 0 C282.68 -1.65, 294.94 8.91, 294 28.25 M265.75 0 C283.18 -1.63, 295.02 8.81, 294 28.25 M294 28.25 C293.56 48.94, 293.04 71.42, 294 84.75 M294 28.25 C293.25 41.61, 293.64 57.1, 294 84.75 M294 84.75 C293.34 104.12, 283.79 114.12, 265.75 113 M294 84.75 C295.69 101.77, 284.05 114.07, 265.75 113 M265.75 113 C205.72 113.67, 147.5 114.55, 28.25 113 M265.75 113 C175.96 113.79, 86.95 113.3, 28.25 113 M28.25 113 C11.2 113.56, 1.35 103.26, 0 84.75 M28.25 113 C9.42 111.37, 1.87 104.8, 0 84.75 M0 84.75 C0.76 68.71, -0.01 56.63, 0 28.25 M0 84.75 C0.22 62.44, -0.58 41.41, 0 28.25 M0 28.25 C0.05 9.27, 10.93 1.6, 28.25 0 M0 28.25 C-0.59 7.19, 10.17 1.15, 28.25 0" stroke="#000000" stroke-width="1" fill="none"></path></g><g transform="translate(1171.6725726191785 54.965941112550354) rotate(0 28.125 22.5)"><text x="28.125" y="0" font-family="Virgil, Segoe UI Emoji" font-size="36px" fill="#000000" text-anchor="middle" style="white-space: pre;" direction="ltr" dominant-baseline="text-before-edge">Foo</text></g><g stroke-linecap="round"><g transform="translate(1350.1309059525115 55.965941112550354) rotate(0 103.11131661619038 0.749199870126322)"><path d="M0.39 0.68 C34.93 1.14, 172.7 1.49, 207.09 1.64 M-0.87 -0.01 C33.54 0.19, 171.74 -0.08, 206.19 -0.14" stroke="#00ff00" stroke-width="4" fill="none"></path></g><g transform="translate(1350.1309059525115 55.965941112550354) rotate(0 103.11131661619038 0.749199870126322)"><path d="M179.14 10.32 C187.24 6.69, 195.26 3.56, 204.44 -2.05 M177.41 9.46 C184.54 7.73, 191.11 5.31, 207.15 -0.24" stroke="#00ff00" stroke-width="4" fill="none"></path></g><g transform="translate(1350.1309059525115 55.965941112550354) rotate(0 103.11131661619038 0.749199870126322)"><path d="M179.11 -10.2 C187.03 -7.96, 195.06 -5.21, 204.44 -2.05 M177.37 -11.06 C184.61 -8.32, 191.18 -6.28, 207.15 -0.24" stroke="#00ff00" stroke-width="4" fill="none"></path></g></g><mask></mask><g stroke-linecap="round"><g transform="translate(1348.93006375209 98.46594111255035) rotate(0 81.82183670809195 56.16024032301584)"><path d="M0.09 0.64 C14.33 9.78, 58.34 36.99, 85.82 55.49 C113.29 73.98, 151.9 102.25, 164.97 111.62 M-1.32 -0.07 C12.7 8.66, 57.18 34.95, 84.73 53.69 C112.29 72.43, 150.82 102.62, 164.01 112.39" stroke="#ff0000" stroke-width="4" fill="none"></path></g><g transform="translate(1348.93006375209 98.46594111255035) rotate(0 81.82183670809195 56.16024032301584)"><path d="M136.41 103.1 C145.95 105.84, 152.7 107.49, 162.36 113.32 M135.79 103.27 C144.04 105.73, 151.99 108.5, 163.39 112.03" stroke="#ff0000" stroke-width="4" fill="none"></path></g><g transform="translate(1348.93006375209 98.46594111255035) rotate(0 81.82183670809195 56.16024032301584)"><path d="M148.81 86.74 C154.32 94.93, 156.95 102.02, 162.36 113.32 M148.19 86.92 C152.93 93.78, 157.48 101.04, 163.39 112.03" stroke="#ff0000" stroke-width="4" fill="none"></path></g></g><mask></mask><g stroke-linecap="round"><g transform="translate(35.00706089769983 216.66666666666606) rotate(0 766.7663897592571 -0.4999308843165622)"><path d="M-0.61 1.44 C255.05 0.79, 1278.65 -1.82, 1534.14 -2.44 M4.25 -0.24 C259.44 -0.77, 1275.86 -0.11, 1531.44 -0.14" stroke="#ff0000" stroke-width="4" fill="none"></path></g><g transform="translate(35.00706089769983 216.66666666666606) rotate(0 766.7663897592571 -0.4999308843165622)"><path d="M1505.31 8.89 C1508.31 3.27, 1517.18 5.8, 1530.42 -2.59 M1505.01 9.24 C1511.54 7.72, 1514.84 4.85, 1530.77 -1.14" stroke="#ff0000" stroke-width="4" fill="none"></path></g><g transform="translate(35.00706089769983 216.66666666666606) rotate(0 766.7663897592571 -0.4999308843165622)"><path d="M1505.31 -11.63 C1508.54 -10.94, 1517.4 -2.1, 1530.42 -2.59 M1505.01 -11.28 C1511.73 -8.1, 1515.03 -6.27, 1530.77 -1.14" stroke="#ff0000" stroke-width="4" fill="none"></path></g></g><mask></mask><g transform="translate(1396.6737275643663 10) rotate(0 63 22.5)"><text x="0" y="0" font-family="Virgil, Segoe UI Emoji" font-size="36px" fill="#2f9e44" text-anchor="start" style="white-space: pre;" direction="ltr" dominant-baseline="text-before-edge">TResult</text></g><g transform="translate(1415.0070608976994 239.9999999999991) rotate(0 54 22.5)"><text x="0" y="0" font-family="Virgil, Segoe UI Emoji" font-size="36px" fill="#e03131" text-anchor="start" style="white-space: pre;" direction="ltr" dominant-baseline="text-before-edge">TError</text></g></svg>
