<svg version="1.1" xmlns="http://www.w3.org/2000/svg" viewBox="0 0 1016.4396435762269 1483.7039299229987" width="1016.4396435762269" height="1483.7039299229987">
  <!-- svg-source:excalidraw -->
  
  <defs>
    <style class="style-fonts">
      @font-face {
        font-family: "Virgil";
        src: url("https://cdn.jsdelivr.net/gh/max32002/max-hana@1.1/webfont/HanaMinA.woff2");
      }
      @font-face {
        font-family: "Cascadia";
        src: url("https://excalidraw.com/Cascadia.woff2");
      }
    </style>
    
  </defs>
  <rect x="0" y="0" width="1016.4396435762269" height="1483.7039299229987" fill="#ffffff"></rect><g stroke-linecap="round" transform="translate(120.04890199086321 1121.8215769818244) rotate(0 404.16666666666674 113.3333333333336)"><path d="M566.25 7.64 C595.07 9.07, 622.04 15.06, 646.19 20.64 C670.35 26.23, 691.76 34.45, 711.16 41.15 C730.57 47.84, 748.91 53.57, 762.64 60.8 C776.38 68.03, 786.23 76.09, 793.57 84.53 C800.9 92.97, 805.13 103.25, 806.63 111.43 C808.14 119.61, 807.95 126, 802.59 133.61 C797.22 141.22, 786.93 149.24, 774.44 157.09 C761.94 164.93, 745.67 173.38, 727.61 180.66 C709.55 187.95, 688.61 195.16, 666.08 200.78 C643.56 206.41, 619.14 210.56, 592.46 214.41 C565.79 218.26, 534.98 221.66, 506.01 223.9 C477.04 226.13, 448.16 227.5, 418.64 227.82 C389.11 228.13, 358.34 227.54, 328.87 225.8 C299.41 224.06, 269.46 221.21, 241.86 217.37 C214.26 213.53, 187.69 208.04, 163.27 202.74 C138.84 197.45, 114.74 191.75, 95.31 185.61 C75.88 179.48, 60.46 173.09, 46.69 165.95 C32.92 158.8, 20.27 150.6, 12.67 142.74 C5.07 134.88, 1.79 127.33, 1.09 118.78 C0.39 110.23, 2.96 99.66, 8.49 91.41 C14.02 83.16, 22.2 76.67, 34.27 69.28 C46.33 61.89, 63.24 54.23, 80.88 47.05 C98.51 39.88, 117.35 31.76, 140.09 26.22 C162.83 20.68, 190.33 17.65, 217.29 13.81 C244.24 9.97, 272.81 5.35, 301.82 3.18 C330.83 1.01, 361.28 0.82, 391.36 0.78 C421.45 0.74, 451.49 1.07, 482.33 2.94 C513.17 4.82, 559.69 10.08, 576.4 12.01 C593.11 13.94, 585.3 12.7, 582.58 14.53 M654.8 25.52 C681.64 28.44, 700.3 34.42, 719.39 40.6 C738.48 46.79, 755.86 55.25, 769.33 62.66 C782.81 70.06, 793.82 76.93, 800.24 85.04 C806.65 93.14, 807.66 102.55, 807.84 111.28 C808.02 120.02, 807.37 129.09, 801.31 137.45 C795.24 145.82, 784.68 153.8, 771.46 161.48 C758.24 169.15, 741.3 176.53, 721.99 183.48 C702.68 190.42, 679.08 198.05, 655.59 203.15 C632.1 208.24, 608.1 210.42, 581.06 214.05 C554.01 217.69, 522.75 223.28, 493.34 224.98 C463.93 226.68, 433.79 224.24, 404.59 224.24 C375.39 224.24, 347.32 226.1, 318.14 224.97 C288.97 223.84, 256.81 221.22, 229.53 217.44 C202.25 213.66, 178.07 207.73, 154.45 202.31 C130.83 196.88, 106.26 191.87, 87.79 184.88 C69.32 177.89, 56.88 168.17, 43.65 160.38 C30.41 152.59, 15.87 145.73, 8.37 138.15 C0.88 130.58, -1.39 123.45, -1.31 114.92 C-1.24 106.4, 2.15 95.23, 8.81 86.99 C15.48 78.75, 25.29 73.23, 38.67 65.48 C52.05 57.74, 70.85 47.02, 89.11 40.52 C107.37 34.02, 124.96 30.87, 148.23 26.49 C171.49 22.11, 201.37 17.93, 228.67 14.24 C255.98 10.55, 282.78 6.49, 312.06 4.33 C341.34 2.16, 374.31 1.19, 404.36 1.26 C434.4 1.33, 463.89 3.3, 492.32 4.77 C520.76 6.23, 547.69 7, 574.95 10.06 C602.22 13.11, 643.14 20.3, 655.93 23.12 C668.73 25.93, 656.26 24.99, 651.73 26.94" stroke="none" stroke-width="0" fill="#ffffff"></path><path d="M499.32 4.4 C528.88 4.76, 557.99 10.4, 584.83 13.73 C611.67 17.05, 637.42 19.44, 660.35 24.37 C683.29 29.29, 704.41 36.17, 722.46 43.27 C740.5 50.38, 755.76 59.11, 768.63 67 C781.5 74.9, 793.12 82.7, 799.68 90.62 C806.24 98.53, 808.63 106.06, 807.99 114.51 C807.35 122.97, 802.57 133.28, 795.83 141.33 C789.08 149.38, 780.89 155.58, 767.52 162.8 C754.16 170.02, 734.71 178.21, 715.64 184.64 C696.57 191.08, 676.5 195.96, 653.1 201.42 C629.69 206.88, 602.1 213.4, 575.19 217.41 C548.29 221.42, 520.76 223.73, 491.69 225.48 C462.61 227.23, 431.2 228.28, 400.74 227.9 C370.29 227.52, 338.19 225.35, 308.94 223.19 C279.68 221.04, 251.89 218.39, 225.19 214.97 C198.49 211.56, 171.76 208.11, 148.76 202.71 C125.75 197.31, 105.92 189.32, 87.18 182.55 C68.43 175.78, 49.11 169.66, 36.28 162.1 C23.46 154.53, 16.01 145.74, 10.22 137.14 C4.43 128.53, 1.36 118.55, 1.54 110.46 C1.71 102.36, 4.67 96.23, 11.26 88.55 C17.85 80.87, 27.7 72.12, 41.09 64.38 C54.49 56.65, 72.71 48.88, 91.63 42.15 C110.54 35.42, 131.33 29.23, 154.58 24.01 C177.84 18.8, 203.53 14.68, 231.15 10.87 C258.78 7.05, 290.64 3.01, 320.33 1.1 C350.01 -0.81, 377.23 -1.18, 409.28 -0.6 C441.34 -0.02, 493.1 3, 512.65 4.58 C532.21 6.16, 528.27 7.32, 526.61 8.88 M619.07 17.06 C646.88 19.59, 671.48 27.05, 692.46 33.08 C713.44 39.11, 728.94 45.63, 744.93 53.25 C760.92 60.87, 778.32 71.08, 788.4 78.79 C798.48 86.51, 802.73 91.96, 805.41 99.54 C808.08 107.11, 808.31 115.17, 804.45 124.24 C800.59 133.3, 792.5 145.25, 782.26 153.92 C772.02 162.59, 758.31 169.76, 743 176.23 C727.7 182.71, 711.43 187.57, 690.44 192.78 C669.46 197.99, 642.45 203.29, 617.08 207.47 C591.71 211.65, 566.9 214.53, 538.21 217.85 C509.53 221.17, 475.29 226.23, 444.98 227.4 C414.68 228.57, 386.17 226.01, 356.38 224.88 C326.59 223.75, 294.1 223.46, 266.25 220.6 C238.4 217.73, 214.66 212.39, 189.29 207.69 C163.91 202.99, 135.43 198.13, 114.01 192.41 C92.6 186.69, 75.99 180.81, 60.82 173.37 C45.64 165.93, 32.99 155.56, 22.97 147.77 C12.96 139.97, 4.16 134.75, 0.74 126.63 C-2.68 118.51, -1.55 107.25, 2.45 99.04 C6.45 90.83, 14.19 84.63, 24.72 77.36 C35.26 70.09, 50.26 63.36, 65.65 55.43 C81.04 47.51, 96.37 36.05, 117.08 29.81 C137.8 23.57, 164.36 21.69, 189.94 17.98 C215.52 14.28, 242.54 10.81, 270.58 7.59 C298.62 4.38, 328.09 -0.21, 358.19 -1.31 C388.3 -2.41, 421.45 0.09, 451.22 1 C480.99 1.91, 508.81 1.49, 536.81 4.16 C564.81 6.82, 605.94 14.72, 619.24 17.01 C632.54 19.29, 620.32 16.43, 616.6 17.88" stroke="#343a40" stroke-width="4" fill="none"></path></g><g transform="translate(209.38223532419624 1380.321576981822) rotate(0 317.5 46.69117647058829)"><text x="0" y="0" font-family="Virgil, Segoe UI Emoji" font-size="74.70588235294112px" fill="#1e1e1e" text-anchor="start" style="white-space: pre;" direction="ltr" dominant-baseline="text-before-edge">Мир обычных типов</text></g><g transform="translate(143.08026857622735 10) rotate(0 392.109375 46.691176470588175)"><text x="0" y="0" font-family="Virgil, Segoe UI Emoji" font-size="74.70588235294112px" fill="#1e1e1e" text-anchor="start" style="white-space: pre;" direction="ltr" dominant-baseline="text-before-edge">Мир возвышенных типов</text></g><g stroke-linecap="round" transform="translate(123.91360190956061 989.1078431372554) rotate(0 404.16666666666674 113.3333333333336)"><path d="M3.98 97.53 C3.98 97.53, 3.98 97.53, 3.98 97.53 M3.98 97.53 C3.98 97.53, 3.98 97.53, 3.98 97.53 M-1.96 120.72 C14.23 112.32, 21.73 105.76, 37.42 77.32 M3.06 126.01 C16.32 108.99, 27.5 94.41, 39.21 78.22 M7.46 137.75 C26.49 115.61, 42.43 97.68, 78.5 61.19 M10.92 136.25 C38.85 107.25, 62.44 79, 79.39 58.17 M21.31 149.31 C44.36 127.17, 68.38 96.48, 111.36 51.72 M21.43 151.88 C42.48 125.41, 63.35 101.56, 110.62 48.39 M37.51 159.34 C71.82 116.96, 116.17 66.8, 140.47 40.98 M34.7 161.01 C72.35 119.12, 108.89 75.34, 140.19 41.27 M44.96 164.59 C77.87 139.21, 99.22 114.18, 163.33 33.09 M49.64 168.97 C84.21 132.94, 118.91 92.42, 165.38 34.62 M62.47 174.9 C101.72 122.82, 151.69 71.38, 204.16 18.23 M63.03 176.37 C109.78 123.8, 159.39 66.54, 199.96 15.78 M79.82 185.77 C120.41 134.38, 167.06 80.58, 228.18 14.73 M79.14 182.92 C127.15 124.34, 177.07 68.35, 225.89 12.42 M92.75 188.12 C126.57 146.78, 165.59 100.07, 248.27 11.01 M95.07 190.34 C127.15 154.39, 159.96 118.22, 248.25 9.9 M109.65 191.95 C145.4 153.12, 175.83 115.9, 274.97 8.18 M111.33 192.51 C153.62 144.86, 196.14 94.4, 271.77 7.4 M130.26 197.98 C173.74 145.31, 221.59 91.6, 291.05 8.3 M130.49 196.18 C168.66 151.71, 206.69 107.37, 291.37 10.6 M149.19 198.65 C194.21 145.41, 244.05 86.42, 315.64 10.91 M147.02 202.47 C188.16 148.45, 234.24 95.14, 313.34 10.05 M166.72 202.6 C202.95 162.43, 238.31 118.89, 338.06 6.74 M164.93 203.93 C228.46 131.63, 295.33 53.87, 335.41 9.04 M184.42 210.09 C230.25 153.62, 273.52 99.48, 362.11 6.88 M180.52 210.38 C234.79 147.66, 286.76 87.54, 358.29 5.62 M199.37 215.35 C273.44 134.6, 340.04 53.41, 380.69 6.94 M202.12 213.69 C246.3 158.09, 295.17 104.22, 382.9 3.39 M217.32 216.41 C271.84 154.22, 325.29 93.29, 399.29 5.41 M219.56 215.15 C271.55 160.73, 321.45 104.83, 402.69 5.39 M239.51 217.82 C297.29 142.2, 365.05 69.72, 423.95 4.9 M237.88 217.2 C295.65 150.21, 354.32 83.74, 423.02 4.95 M257.76 220.43 C303.42 170.54, 342.26 126.1, 444.35 8.66 M256.67 220.9 C300.87 167.99, 342.39 119.91, 443.83 5.22 M275.94 222 C325.5 171.35, 364.64 121.54, 464.54 4.54 M276.44 221.79 C326.28 160.63, 379.82 100.35, 466.11 4.33 M295.7 221.69 C345.43 169.24, 392.61 114.37, 489.13 8.1 M296.76 224.9 C336.65 179.73, 375.33 135.61, 487.5 6.49 M318.91 226.51 C385.41 146.36, 455.55 66.86, 506.37 6.34 M315.75 225.48 C371.38 159.24, 430.5 92.82, 506.55 6.66 M338.63 227.87 C380.51 177.11, 420.59 129.5, 524.33 5.84 M336.11 226.08 C402.34 148.58, 471.61 67.9, 525.74 9.79 M350.77 235.22 C413.88 156.28, 476.3 89.95, 547.55 9.99 M352.88 232.51 C394.22 186.65, 432.44 142.63, 546.44 9.55 M370.64 236.08 C430.39 165.95, 488.11 100.73, 563.5 18.03 M373.12 233.16 C414.09 187.07, 455.73 139.46, 561.29 18.79 M397.29 232.42 C439.88 188.65, 479.04 142.28, 581.06 17.31 M395.17 234.27 C444.12 177.79, 492.04 122.2, 581.04 18.16 M416.99 231.88 C485.45 153.33, 552.78 78.7, 596.73 23.93 M415.59 233.82 C456.43 182.7, 502.27 130.07, 600.54 22.13 M436.58 229.19 C510.67 149.67, 586.84 64.72, 616.74 24.9 M438.3 232.03 C512.02 153.89, 579.12 71.6, 617.94 25.8 M461.44 227.24 C524.74 159.69, 588.19 86.73, 639.67 22.82 M461.42 229.32 C508.69 177.93, 555.86 123.87, 638.78 26.62 M481.96 227.03 C548.91 153.05, 611.36 79.14, 657.68 33.75 M482.64 227.03 C545.03 151.17, 611.76 76.69, 656.06 29.24 M507.39 229.11 C561.92 164.29, 611.71 100.89, 670.17 35.59 M505.07 227.14 C548.92 178.66, 590.77 126.69, 673.29 33.61 M529.62 228.24 C570.62 170.63, 617.01 120.34, 687.87 39.66 M529.64 225.42 C570.42 179.25, 610.8 132.27, 689.27 41.85 M550.13 221.18 C581.62 185.28, 618.72 145.03, 703.74 45.31 M553.42 224.12 C608.15 158.88, 665.49 93.46, 707.83 45.17 M573.13 218.45 C610.27 182.51, 649.14 137.2, 721.05 47.49 M575.18 221.68 C619.36 172.05, 663.62 120.43, 723.72 50.29 M602.02 217.66 C636.17 170.42, 679.47 126.6, 738.76 54.81 M598.89 217.55 C636.36 172.49, 678.1 130.01, 741.09 55.64 M613.76 218.01 C676.71 157.46, 724.34 97.08, 760.45 56.49 M615.92 222.45 C653.22 178.55, 689.15 137.58, 759.02 60.49 M645.41 210.67 C679.48 172.7, 718.87 128.51, 770.05 64.43 M645.97 215.99 C673.76 184.86, 699.47 152.69, 771.85 67.81 M681.76 195.86 C708.64 170.38, 728.54 141.19, 787.73 75.95 M680.28 197.04 C714.63 158.52, 746.57 119.24, 785.14 78.04 M711.7 183.7 C731.24 161.22, 758.25 134.9, 796.95 88.97 M711.72 185.35 C745.42 144.07, 780.12 106.96, 799.58 83.72 M737.03 179.87 C756.28 156.81, 773.11 145.24, 808.83 97.4 M737.74 177.89 C761.68 152.18, 783.21 128.47, 808.84 99.98 M16.33 145.83 C16.33 145.83, 16.33 145.83, 16.33 145.83 M16.33 145.83 C16.33 145.83, 16.33 145.83, 16.33 145.83 M56.9 164.17 C41.61 147.84, 16.03 126.78, 4.82 118.08 M59.84 162.83 C41.57 147.53, 24.16 131.13, 8.59 118.05 M108.36 186.64 C83.25 159.44, 57.04 135.52, 3.94 91.63 M113.22 184.7 C76.21 157.36, 40.99 125.94, 5.87 96.5 M141.68 190.78 C98.19 158.65, 57.28 114.72, 21.55 83.73 M144.64 194.17 C96.17 153.11, 48.65 107.96, 17.63 83.11 M179.79 202.39 C134.5 158.82, 86.75 123.32, 27.63 72.44 M178.64 203.92 C139.68 170.07, 101.11 136.04, 27.81 69.61 M206.62 206.98 C171.9 173.49, 134.64 138.77, 37.46 57.43 M208.63 208.39 C139.72 149.79, 72.45 88.87, 39.31 58.37 M237.3 210.91 C196.69 178.93, 159.2 138.53, 51.62 48.9 M238.03 213.63 C179.44 160.01, 121.06 111.85, 54.73 52.41 M261.18 209.03 C200.81 157.58, 142.22 102.25, 75.8 45.11 M263.17 212.36 C212.89 168.06, 162.17 124.83, 73.37 45.62 M289.28 215.63 C224.29 157.39, 149.09 96.37, 93.81 41.17 M289.39 212.94 C239.52 171.05, 188.06 126.54, 90.69 41.68 M318.53 215.23 C239.79 150.44, 165.74 83.26, 111.15 33.04 M315.75 214.1 C252.5 164.69, 192.58 112.6, 109.2 36.65 M346.41 225.39 C273.51 156.99, 201.8 96.33, 129.93 33.14 M348.69 221.33 C261.4 145.37, 174.03 69.88, 127.2 30.76 M370.92 221.43 C327.38 180.02, 274.51 135.56, 139.1 18.61 M374.72 222.9 C319.64 171.67, 264.67 121.98, 140.72 20.78 M396.66 223.53 C338.97 168.28, 275.78 116.11, 158.73 16.33 M398.09 224.4 C308.21 138.68, 213.92 57.86, 158.47 14.02 M422.81 223.89 C329.71 144.23, 237.09 66.27, 175.94 9.39 M424.1 224.45 C348.82 153.38, 267.63 85.69, 178.52 9.95 M443.24 216.78 C358.16 149.21, 278.39 80.04, 200.11 11.76 M442.75 219.57 C382.92 164.61, 318.69 112.32, 203.51 10 M463.71 219.33 C387.06 148.37, 307.68 78.3, 221 8.81 M465.66 218.07 C415.85 177.82, 366.36 133.35, 223.98 7.57 M486.28 216.38 C415.64 155.4, 342.03 96.49, 245.77 8.5 M488.29 214.46 C396.48 135.52, 303.58 55.35, 244.79 6.74 M508.16 213.97 C418.32 135.48, 329.91 59.61, 268.49 3.19 M508.45 213.17 C455.14 166.19, 401.86 120.33, 265.6 2.31 M529.3 214.71 C450.09 138.46, 361.85 64.99, 285.74 1.87 M531.09 213.84 C468.37 155.71, 404.02 101.74, 288.14 -0.75 M552.43 208.07 C466.1 131.23, 371.53 50.29, 309.5 0.18 M554.54 211.21 C474.96 138.05, 394.63 68.74, 309.82 -1.96 M575.13 207.6 C480.3 130.36, 383.92 43.52, 336.23 0.34 M576.58 208.54 C479.13 125.23, 385.55 44.19, 334.6 -0.77 M599.56 206.36 C541.45 158.15, 485.44 109.95, 357.24 -4.95 M598.65 205.04 C507.75 127.1, 416.08 48.3, 355.67 -3.1 M615.73 200.4 C559.93 150.18, 502.34 104.17, 379.46 -5.56 M617.71 201.16 C523.17 121.17, 425.9 38.29, 379.02 -7.01 M639.21 199.09 C543.56 116.69, 456.73 38.65, 406.95 -2.98 M635.81 196.1 C583.56 148.16, 531.57 105.24, 405.01 -5.27 M655.48 193.09 C571.53 123.14, 492.58 48.1, 427.86 -3.59 M655.54 193.97 C596.7 139.31, 537.38 87.9, 429.71 -5.13 M682.18 194.28 C604.64 125.34, 518.91 50.64, 453.69 -3.27 M682.52 193.56 C632.61 150.54, 582.99 108.12, 455.45 -3.5 M700.57 189.45 C610.82 108.9, 521.36 30.88, 476.14 -10.09 M699.82 189.55 C628.75 124.13, 555.44 59.02, 473.82 -8.22 M714.52 182.78 C629.78 107.88, 550.23 38.24, 499.51 -3.04 M715.82 181.4 C643.51 121.76, 567.89 54.96, 501.2 -7.13 M733.38 177.51 C694.03 136.01, 650.75 101.66, 524.91 -5.71 M735.22 177.11 C679.42 129.45, 625.34 81.36, 527.9 -4.64 M744.3 167.41 C684.92 111.21, 615.35 53.85, 556.97 -0.08 M746.24 164.97 C698.32 128.33, 655.22 88.14, 556.76 3.23 M760.49 159.27 C693.42 101.48, 627.58 37.14, 584.89 5.09 M763.02 159.34 C706.77 105.34, 648.75 57.37, 585.71 5.94 M781.15 155.21 C736.84 112.43, 687.15 69.91, 615.47 11.43 M782.48 155.57 C746.86 122.5, 712.2 93.21, 615.22 9.59 M794.03 145.23 C758.85 110.65, 723.77 82.7, 639.6 6.13 M793.46 143.35 C748.77 99.75, 700.71 58.89, 637.25 7.28 M800.91 128.4 C763.46 102.88, 731.74 70.38, 672.78 16.07 M803.04 130.89 C756.1 88.62, 706.54 46.22, 673.5 16.99 M811.08 112.16 C776.32 83.17, 744.4 57.1, 705.66 23.05 M806.9 112.28 C773.38 83.81, 738.4 52.11, 707.68 26.28" stroke="#eaddd7" stroke-width="2" fill="none"></path><path d="M129.36 31.2 C145.06 24.45, 173.17 19.21, 199.08 14.75 C224.99 10.29, 255.54 7.04, 284.82 4.43 C314.09 1.82, 344.7 -0.45, 374.71 -0.92 C404.71 -1.4, 435.39 -0.07, 464.82 1.57 C494.25 3.22, 523.7 6.12, 551.3 8.94 C578.89 11.75, 605.84 13.64, 630.41 18.47 C654.97 23.3, 678.25 31.72, 698.68 37.89 C719.11 44.07, 737.67 48.76, 752.98 55.5 C768.28 62.24, 781.19 69.85, 790.51 78.32 C799.83 86.79, 806.97 97.6, 808.89 106.3 C810.82 114.99, 806.85 122.33, 802.08 130.48 C797.31 138.63, 790.99 147.57, 780.29 155.2 C769.59 162.83, 754.4 169.61, 737.88 176.27 C721.36 182.92, 702.78 189, 681.17 195.14 C659.55 201.29, 634.3 208.74, 608.17 213.15 C582.03 217.56, 553.33 219.12, 524.36 221.6 C495.4 224.08, 464.16 227.25, 434.37 228.03 C404.57 228.8, 375.34 227.82, 345.6 226.25 C315.87 224.68, 283.98 221.97, 255.95 218.59 C227.91 215.2, 202.1 210.71, 177.39 205.93 C152.67 201.15, 128.24 195.73, 107.66 189.88 C87.09 184.03, 69.14 178.14, 53.96 170.83 C38.78 163.53, 25.46 153.9, 16.59 146.05 C7.72 138.21, 2.8 131.9, 0.74 123.76 C-1.31 115.62, -0.53 106.05, 4.27 97.2 C9.06 88.36, 18.35 78.61, 29.5 70.69 C40.65 62.77, 38.08 59.52, 71.16 49.7 C104.25 39.87, 182.54 19.27, 227.99 11.72 C273.44 4.16, 341.17 2.43, 343.87 4.36 M87.21 42.18 C98.81 34.77, 123.01 29.96, 145.9 24.64 C168.79 19.32, 197.09 13.74, 224.55 10.25 C252.01 6.76, 281.79 5.81, 310.65 3.7 C339.51 1.6, 368.04 -2.16, 397.7 -2.38 C427.36 -2.61, 459.05 0.32, 488.62 2.34 C518.2 4.36, 547.71 6.3, 575.15 9.76 C602.59 13.22, 630.02 18.27, 653.25 23.11 C676.48 27.95, 695.48 31.94, 714.54 38.81 C733.61 45.68, 753.48 56.13, 767.66 64.32 C781.84 72.51, 792.71 80.55, 799.61 87.97 C806.52 95.39, 809.4 100.73, 809.09 108.85 C808.77 116.98, 803.69 127.88, 797.73 136.69 C791.77 145.5, 785.79 153.74, 773.35 161.7 C760.91 169.67, 742.22 178.45, 723.09 184.48 C703.95 190.51, 681.91 192.48, 658.53 197.88 C635.14 203.28, 609.29 212.45, 582.78 216.86 C556.27 221.27, 528.31 222.98, 499.49 224.36 C470.67 225.75, 439.51 225.61, 409.86 225.16 C380.21 224.71, 350.93 223.56, 321.59 221.66 C292.26 219.77, 261.09 216.61, 233.88 213.78 C206.67 210.95, 181.99 209.88, 158.35 204.69 C134.7 199.51, 111.02 189.65, 92.03 182.67 C73.03 175.69, 58 170.12, 44.37 162.82 C30.74 155.53, 17.14 147.2, 10.24 138.89 C3.35 130.59, 3.1 121.26, 3 113.01 C2.89 104.77, 4.14 96.89, 9.61 89.44 C15.08 82, 23.19 75.66, 35.79 68.33 C48.4 61, 76.5 49.58, 85.24 45.45 C93.97 41.33, 82.9 42.29, 88.22 43.58" stroke="#1e1e1e" stroke-width="4" fill="none"></path></g><g stroke-linecap="round"><g transform="translate(123.08026857622735 1117.4411764705887) rotate(0 -2.2575863762618837 67.48242589258587)"><path d="M0.87 -0.2 C0.29 22.42, -3.55 112.23, -4.63 134.86 M-0.14 -1.35 C-0.73 21.54, -4.29 113.83, -5.38 136.32" stroke="#1e1e1e" stroke-width="4" fill="none"></path></g></g><mask></mask><g stroke-linecap="round"><g transform="translate(930.5802685762269 1104.9411764705887) rotate(0 -0.486564576411638 72.6032367688091)"><path d="M-0.72 0.3 C-1.09 24.77, -1.31 121.81, -1.6 145.8 M1.1 -0.59 C0.6 23.64, -1.36 119.81, -2.07 144.09" stroke="#1e1e1e" stroke-width="4" fill="none"></path></g></g><mask></mask><g transform="translate(114.39276857622735 905.5000000000006) rotate(0 112.03125 46.691176470588175)"><text x="0" y="0" font-family="Virgil, Segoe UI Emoji" font-size="74.70588235294112px" fill="#1e1e1e" text-anchor="start" style="white-space: pre;" direction="ltr" dominant-baseline="text-before-edge">string</text></g><g transform="translate(466.56464357622735 888.0000000000006) rotate(0 74.6875 46.691176470588175)"><text x="0" y="0" font-family="Virgil, Segoe UI Emoji" font-size="74.70588235294112px" fill="#1e1e1e" text-anchor="start" style="white-space: pre;" direction="ltr" dominant-baseline="text-before-edge">bool</text></g><g transform="translate(796.5802685762269 930.5000000000003) rotate(0 56.015625 46.691176470588175)"><text x="0" y="0" font-family="Virgil, Segoe UI Emoji" font-size="74.70588235294112px" fill="#1e1e1e" text-anchor="start" style="white-space: pre;" direction="ltr" dominant-baseline="text-before-edge">int</text></g><g stroke-linecap="round" transform="translate(110.65613341463586 282.9647100595397) rotate(0 404.16666666666674 113.3333333333336)"><path d="M432.17 1.12 C461.39 -0.26, 492.95 3.1, 521.33 5.26 C549.72 7.42, 576.58 10.03, 602.46 14.07 C628.34 18.12, 654.18 23.86, 676.6 29.52 C699.02 35.18, 719.86 40.88, 736.99 48.05 C754.12 55.23, 768.16 64.52, 779.37 72.55 C790.57 80.58, 799.61 87.89, 804.23 96.23 C808.85 104.57, 809.02 114.4, 807.08 122.58 C805.14 130.76, 800.99 137.7, 792.61 145.31 C784.24 152.92, 772.08 160.92, 756.85 168.26 C741.61 175.6, 721.58 183.31, 701.2 189.37 C680.81 195.43, 658.87 199.52, 634.53 204.6 C610.18 209.67, 582.77 216.13, 555.14 219.84 C527.5 223.55, 498.19 225.64, 468.7 226.87 C439.21 228.1, 408.68 228.35, 378.22 227.21 C347.75 226.08, 315.08 222.91, 285.89 220.07 C256.69 217.23, 228.69 214.24, 203.04 210.17 C177.39 206.11, 153.84 201.37, 132.01 195.66 C110.18 189.95, 89.17 182.62, 72.06 175.91 C54.94 169.2, 40.2 162.8, 29.33 155.4 C18.46 148, 11.31 139.69, 6.81 131.53 C2.31 123.36, 0.36 115.21, 2.35 106.41 C4.34 97.61, 10.16 87.21, 18.73 78.72 C27.3 70.24, 39.15 62.63, 53.78 55.5 C68.41 48.37, 86.25 41.99, 106.53 35.95 C126.8 29.91, 151.08 23.84, 175.44 19.26 C199.79 14.67, 224.85 11.29, 252.66 8.43 C280.48 5.58, 310 3.72, 342.32 2.12 C374.65 0.52, 426.57 -1.06, 446.61 -1.15 C466.65 -1.24, 463.16 -0.85, 462.58 1.56 M521.88 4.18 C550.67 4.58, 579.19 12.45, 605.18 16.7 C631.17 20.96, 655.86 24.23, 677.83 29.71 C699.81 35.2, 720.21 42.35, 737.06 49.62 C753.9 56.89, 767.71 65.36, 778.89 73.35 C790.08 81.33, 799.58 89.46, 804.17 97.54 C808.75 105.63, 808.82 113.75, 806.41 121.86 C804 129.96, 798.02 138.5, 789.72 146.16 C781.42 153.81, 771.27 160.35, 756.6 167.8 C741.93 175.26, 722.87 184.61, 701.7 190.89 C680.53 197.17, 655.13 200.49, 629.57 205.49 C604.01 210.49, 576.04 217.34, 548.32 220.9 C520.6 224.46, 492.89 225.88, 463.26 226.85 C433.62 227.83, 399.95 227.42, 370.51 226.77 C341.06 226.11, 315.01 225.1, 286.6 222.92 C258.19 220.73, 225.99 218.04, 200.05 213.64 C174.11 209.23, 152.53 202.53, 130.96 196.5 C109.39 190.47, 87.59 184.21, 70.62 177.48 C53.65 170.74, 40.05 164.24, 29.12 156.08 C18.19 147.92, 9.38 137.4, 5.05 128.52 C0.72 119.64, 1.3 111.24, 3.15 102.8 C5 94.36, 7.58 85.22, 16.13 77.89 C24.68 70.56, 38.77 65.83, 54.43 58.82 C70.09 51.8, 90.06 42.71, 110.09 35.8 C130.13 28.89, 150.15 21.75, 174.65 17.37 C199.15 12.99, 229.23 12.27, 257.1 9.52 C284.96 6.77, 311.9 2.16, 341.85 0.86 C371.8 -0.44, 406.23 0.97, 436.8 1.73 C467.37 2.49, 510.93 4.49, 525.28 5.42 C539.62 6.36, 525.04 5.61, 522.87 7.33" stroke="none" stroke-width="0" fill="#ffffff"></path><path d="M619.32 15.98 C646.82 18.43, 669.78 25.44, 690.72 31.86 C711.66 38.27, 728.79 47.26, 744.94 54.48 C761.1 61.69, 777.67 67.56, 787.64 75.16 C797.61 82.76, 801.91 91.57, 804.76 100.08 C807.62 108.59, 808.1 118.01, 804.78 126.2 C801.46 134.39, 794.82 141, 784.85 149.21 C774.88 157.42, 760.77 168.01, 744.95 175.45 C729.14 182.89, 710.84 188.45, 689.96 193.86 C669.08 199.28, 644.87 203.64, 619.67 207.93 C594.47 212.21, 567.58 216.71, 538.77 219.57 C509.96 222.44, 476.58 223.85, 446.8 225.1 C417.01 226.35, 389.61 228.23, 360.06 227.09 C330.52 225.95, 298.42 221.21, 269.54 218.26 C240.66 215.32, 212.07 213.59, 186.78 209.41 C161.49 205.23, 138.76 199.42, 117.8 193.19 C96.83 186.96, 77.11 179.24, 61 172.02 C44.89 164.81, 30.75 157.87, 21.13 149.91 C11.51 141.94, 6.32 132.28, 3.27 124.24 C0.22 116.2, -0.56 110.06, 2.83 101.65 C6.23 93.24, 13.44 81.87, 23.66 73.79 C33.88 65.71, 48.19 59.98, 64.14 53.17 C80.1 46.37, 98.17 38.69, 119.4 32.96 C140.62 27.23, 166.1 23.52, 191.49 18.79 C216.87 14.07, 243.8 7.67, 271.69 4.62 C299.58 1.57, 329.18 1.19, 358.82 0.52 C388.46 -0.16, 419.88 -0.47, 449.51 0.55 C479.15 1.57, 500.19 2.31, 536.62 6.63 C573.06 10.96, 640.07 20.46, 668.14 26.49 C696.21 32.53, 709.66 41.5, 705.04 42.82 M151.24 26.3 C168.63 20.4, 198.42 18.27, 225.33 14 C252.24 9.73, 283.45 3.27, 312.68 0.67 C341.9 -1.93, 370.63 -2.04, 400.68 -1.58 C430.73 -1.13, 463.17 1.3, 492.99 3.4 C522.81 5.51, 552.63 7.41, 579.6 11.04 C606.58 14.67, 631.87 19.8, 654.84 25.17 C677.81 30.55, 699.15 36.53, 717.42 43.28 C735.68 50.04, 751.11 58.45, 764.43 65.73 C777.74 73, 789.75 79.44, 797.32 86.94 C804.9 94.44, 809.42 102.64, 809.86 110.72 C810.3 118.8, 806.68 126.67, 799.97 135.43 C793.26 144.19, 783.17 154.93, 769.6 163.28 C756.02 171.64, 737.45 178.79, 718.52 185.56 C699.59 192.33, 678.68 198.91, 656.05 203.91 C633.41 208.9, 609.4 212.43, 582.73 215.51 C556.06 218.6, 525.16 220.22, 496.02 222.41 C466.88 224.59, 438.15 228.12, 407.88 228.63 C377.61 229.14, 343.81 227.13, 314.38 225.46 C284.96 223.8, 258.42 222.64, 231.31 218.64 C204.2 214.65, 175.67 207.58, 151.71 201.5 C127.75 195.42, 106.28 188.63, 87.53 182.16 C68.78 175.68, 51.58 170.33, 39.21 162.67 C26.85 155.01, 20.16 144.29, 13.35 136.18 C6.55 128.08, -1.44 122.25, -1.61 114.04 C-1.78 105.83, 5.97 95.27, 12.33 86.93 C18.7 78.6, 24.01 70.84, 36.57 64.02 C49.13 57.21, 68.56 52.97, 87.68 46.04 C106.81 39.12, 140.47 25.81, 151.34 22.46 C162.22 19.12, 148.53 23.77, 152.94 25.97" stroke="#1971c2" stroke-width="4" fill="none"></path></g><g stroke-linecap="round" transform="translate(114.52083333333326 150.25097621497093) rotate(0 404.16666666666674 113.33333333333354)"><path d="M12.44 88.99 C12.44 88.99, 12.44 88.99, 12.44 88.99 M12.44 88.99 C12.44 88.99, 12.44 88.99, 12.44 88.99 M9.52 114.36 C21.02 109.22, 33.04 97.96, 54.46 70.93 M6.47 119.33 C17.46 108.15, 26.55 97.03, 50.79 71.23 M14.62 134.96 C38.99 103.41, 64.86 74.29, 94.88 43.45 M12.41 137.55 C27.39 117.83, 45.16 96.65, 94.41 45.68 M23.2 146.35 C55.25 111.9, 83.38 76.7, 120.84 35.19 M23.89 148.34 C56.89 109.31, 92.04 70.25, 121.92 37.7 M39.8 157.34 C67.07 125.79, 92.43 101.74, 150.43 27.77 M37.59 158.43 C78 110.97, 119.24 60.91, 149.97 28.57 M52.25 171.08 C77.74 134.17, 102.5 105.93, 168.3 30.82 M50.17 168.87 C82.01 129.04, 114.86 90.32, 167.36 32.75 M61.77 175.56 C117.21 118.8, 163.56 61.02, 189.57 30.18 M62.29 177.67 C105.74 134.26, 144.46 88.43, 188.77 30.1 M76.25 180.6 C107.78 152.63, 132.81 116.78, 217.77 25.55 M77.54 184.41 C107.07 148.05, 138.65 111.23, 215.04 27.47 M95.6 191.27 C144.36 136.2, 188.8 79.56, 239.44 20.85 M94.66 190.4 C147.25 126.19, 202.08 60.48, 239.67 22.19 M111.96 196.22 C152.69 142.78, 200.36 90.06, 264.42 17.29 M111.34 193.91 C139.65 157.71, 174.8 120.15, 263.12 17.8 M127.91 201.6 C174.42 145.45, 227.42 95.73, 288 18.48 M127.09 200.65 C174.94 145.66, 220.89 90.6, 287.7 14.78 M143.74 203.82 C188.05 156.99, 224.26 110.21, 320.9 3.97 M145.75 203.99 C181.48 161.85, 217 120.66, 318.31 4.34 M162.89 208.7 C223.85 143.45, 279.89 72.18, 342.04 4.97 M162.97 210.79 C233.64 131.33, 301.01 51.57, 343.17 1.46 M182.22 210.52 C215.98 167.44, 254.75 128, 362.98 1.96 M180.41 214.01 C227.48 161.92, 274.42 106.91, 364.49 1.02 M196.87 218.2 C238.61 166.21, 279.74 120.19, 384.82 2.12 M198.89 216.12 C274.02 132.25, 349.51 47.9, 385.58 1.21 M219 219.17 C260.38 173.94, 307.71 122.41, 408.13 -0.53 M217.6 220.25 C273.63 151.85, 334.43 83.33, 409.27 -1.75 M233.01 222.04 C294.58 154.77, 352.52 87.46, 430.59 0.26 M236.23 224.37 C280.32 169.36, 322.92 116.36, 428.2 -0.67 M254.39 224.13 C293.07 179.38, 332.3 138.61, 450.88 1.98 M254.95 225.52 C296.18 175.84, 339.27 124.93, 447.93 1.89 M275.97 226.83 C319.51 173.45, 366.2 123.1, 468.77 3.36 M272.97 225.92 C316.32 179.09, 359 129.58, 467.64 3.65 M293.18 231.27 C344.52 174.94, 394.15 114.38, 487.82 4.55 M294.24 228.82 C357.97 154.22, 420.39 80.43, 487.22 5.87 M318.61 225.8 C370.91 165.46, 421.48 100.12, 501.53 12.58 M316.74 226.04 C370.97 168.61, 422.93 110.06, 503.75 9.99 M339.78 227.24 C409.02 149.74, 476.16 66.25, 526 15.15 M336.19 227.56 C391.99 169.78, 445 110.33, 524.5 12.39 M354.81 228.01 C396.92 183.91, 442.96 134.45, 543.92 13.25 M356.53 229.4 C418.38 161.07, 477.68 92.18, 542.58 13.25 M380.25 228.53 C421.19 181.74, 458.95 133.67, 561.56 13.12 M377.66 231.25 C450.94 145.65, 527.45 57.89, 565.1 14.4 M399.8 224.55 C440.41 177.87, 484.71 133.7, 585.24 10.48 M400.25 226.94 C444.68 172.74, 489.03 122.47, 587.98 12.87 M424.05 224.8 C475.03 168.8, 519.38 115.72, 602.21 14.94 M423.17 225.11 C483.4 155.96, 541.22 87.23, 605.63 16.23 M446.17 223.14 C511.72 153.46, 573.88 82.36, 621.27 20.85 M443.1 224.61 C509.32 149.27, 574.05 72.65, 622.41 19.54 M467.86 225.47 C513.08 166.43, 562.12 110.54, 640.93 26.82 M466.9 226.18 C532.55 145.26, 601.82 65.61, 640.82 25.26 M487.26 221.93 C538.37 170.65, 585.92 117.85, 661.33 25.26 M488.43 223.17 C557.98 142.73, 628.93 65.95, 659.29 26.58 M500.98 233.02 C548.32 188.12, 590.29 132.24, 679.74 30.09 M501.15 235.36 C543.15 185.02, 581.71 141.29, 675.54 31.87 M524.55 229.65 C556.96 188.93, 591.13 151.58, 695.23 36.15 M523.55 232.38 C560.91 184.3, 597.49 141, 692.3 37.01 M548.96 226.83 C590.1 179.39, 632.54 135.64, 710.85 39.75 M547.51 230.36 C602.61 159.9, 657.94 97.73, 712.26 42.8 M583.22 218.47 C619.81 169.79, 664.94 123.37, 728.13 48.35 M578.99 217.19 C632.48 156.84, 686.44 94.03, 726.55 48.61 M602.62 210.33 C652.66 155.64, 704.57 98.22, 744.2 52.02 M605.29 212.41 C658.29 149.21, 711.21 88.84, 743.44 53.39 M625.37 208.75 C660.65 177.73, 688.43 146.7, 758.3 62.36 M628.16 208.54 C668.1 165.78, 703.99 123.5, 756.36 61.28 M649.98 210.93 C698.77 158.79, 747.34 97.14, 773.91 63.1 M650.05 205.4 C685.22 176.2, 712.73 142.25, 772.09 67.83 M669.24 216.75 C701.06 173.57, 738.62 132.59, 785.46 74.43 M668.62 214.7 C702.39 172.05, 735.9 130.44, 783.88 78.71 M698.32 202.43 C724.51 164.97, 759.24 126.89, 796.44 88.88 M696.28 204.19 C733.11 164.76, 767.42 125.22, 795.75 88.9 M725.15 191.85 C750.45 167.29, 776.93 133.81, 808.65 96.18 M728.74 193.37 C748.82 164.79, 774.78 137.83, 809.44 99.75 M770.14 167.05 C782.53 154.92, 793.6 147.95, 812.34 121.71 M774.65 164.18 C781.38 156.35, 789 143.43, 812.51 117.71 M11.25 137.96 C11.25 137.96, 11.25 137.96, 11.25 137.96 M11.25 137.96 C11.25 137.96, 11.25 137.96, 11.25 137.96 M90.44 179.55 C70.2 167.71, 48.87 150.7, 5.62 110.06 M89.14 184.9 C69.35 162.69, 49.39 147.66, 1.21 109.14 M124.35 189.42 C89.41 163.24, 64.93 141.74, 8.02 91.58 M119.93 189.44 C81.36 156.48, 43.08 123.22, 9.73 95.32 M152.29 198.39 C112.76 167.96, 80.02 129.81, 20.09 81.58 M151 197.34 C103.79 158.96, 60.57 116.47, 17.7 83.05 M181.33 203.08 C127.54 157.14, 71.93 109.94, 27.32 69.29 M183.76 204.05 C125.04 154.74, 67.65 106.94, 30.27 71.1 M218.23 211.02 C174.76 167.09, 126.28 133.85, 41.88 59.74 M216.44 209.6 C160.66 162.35, 103.72 116.8, 44.79 60.77 M230.65 204.71 C162.75 142.99, 92.78 87.3, 57.02 55.21 M234.21 204.51 C184.14 160.56, 134.3 119.63, 61.26 52.73 M263.46 203.91 C222.48 174.87, 184.04 142.94, 76.81 49.32 M260.87 206.93 C209.67 161.78, 163.01 120.12, 76.33 47.75 M288.11 210.16 C217.4 142.86, 139.38 81.43, 92.69 36.33 M288.59 208.28 C213.06 146.7, 138.79 82.47, 92.92 38.87 M318.27 215.54 C258.72 161.23, 204.09 108.74, 107.43 31.82 M317.72 214.7 C238.08 145.86, 161.02 76.07, 111.47 33.24 M343.89 217.29 C292.47 176.4, 246.99 134.34, 127.74 27.55 M342.25 215.89 C276.41 160.32, 211.4 105.95, 129.13 29.32 M369.07 219.15 C314.5 168.76, 259.92 121.58, 147.02 23.22 M369.17 216.11 C295.5 150.07, 215.33 82.92, 148.18 23.1 M405.19 225.37 C353.19 184.39, 302.22 137.97, 161.76 16.71 M401.6 224.31 C318.24 153.59, 236.46 83.19, 162.82 14.21 M426.49 221.58 C333.83 144.64, 249.02 65.07, 180.23 10.18 M427.54 223.16 C336.89 143.04, 242.56 62.51, 181.91 11.14 M452.2 220.54 C396.13 174.31, 345.7 134.21, 204.07 5.83 M449.44 221.69 C363.3 147.93, 276.09 73.55, 202.97 8 M472.63 219.84 C397.44 152.78, 319.1 87.29, 232.57 10.46 M473.13 223.62 C390.72 147.09, 307.22 72.8, 231.83 11.57 M495.53 219.62 C403.65 140.45, 308.73 58.64, 251.9 6.49 M494.48 217.21 C399.9 135.66, 306.33 55.79, 253.79 9.3 M516.95 217.24 C452.87 167.48, 391.83 108.34, 271.7 4.08 M515.73 214.88 C461.33 166.12, 404.09 114.94, 274.11 5.02 M534.61 211.58 C460.93 147.94, 387.8 81.73, 293.13 5.65 M538.13 212.82 C463.55 149.61, 387.29 85.93, 295.84 3.04 M558.62 210.83 C467.43 127.98, 376.61 48.92, 317.88 2.51 M559.87 210.06 C477.53 142.9, 400.55 74.62, 316.13 2.06 M578.61 210.61 C515.03 147.54, 445.46 86.99, 337.8 2.03 M580.97 209.04 C488.16 127.6, 397.74 51.06, 339.57 -0.02 M601.59 208.05 C521.83 140, 444.39 71.02, 365.98 2.17 M600.32 204.59 C505.45 121.85, 410.23 37.3, 365.8 -0.58 M622.39 204.56 C540.41 130.52, 461.19 63.59, 389.62 -0.79 M624.11 203.74 C568.21 153.81, 512.78 104.46, 388.51 -1.25 M642.86 202.27 C590.32 153.67, 537.41 101.54, 407.15 -4.29 M643.95 199.42 C569.36 135.54, 491.74 70.22, 408.68 -2.84 M664.92 195.47 C597.3 133.11, 527.84 76.76, 436.55 1.06 M662.27 196.27 C584.56 124.99, 505.49 56.99, 435.54 -1.97 M681.07 188 C629.77 143.37, 578.57 96.14, 459.66 -0.3 M681.85 191.03 C619.32 136.97, 559.36 84.74, 460.97 0.6 M697.02 181.54 C626.84 126.98, 556.52 63.4, 491.75 0.13 M697.47 183.38 C632.93 120.72, 561.2 60.69, 489.65 2.54 M716.1 181.17 C645.2 117.01, 567.94 47.01, 502.79 -6.25 M719.99 179.25 C648.93 122.3, 576.9 59.74, 503.42 -6.55 M736.21 174.5 C662.7 108.77, 591.9 50.04, 528.5 -2.05 M735.84 173.3 C686.83 128.67, 636.2 84.6, 531.41 -3.98 M751.94 167 C704.9 127.06, 651.67 85.83, 554.23 -4.26 M753.07 165.79 C706.4 127.2, 660.2 89.09, 556.52 -3.47 M768.91 160.12 C700.08 101.77, 626.96 35.97, 590.08 3.98 M771.37 162.47 C713.44 108.23, 652 56.37, 588.87 3.35 M781.02 153.2 C738.23 115.64, 699 77.35, 623.74 10.28 M781.66 150.56 C735.74 115.8, 694 75.86, 620.64 9.39 M795.97 136.82 C755.65 100.34, 706.16 70.28, 658.24 26.18 M793.69 139.64 C767.19 114.9, 737.2 90.13, 659.73 22.48 M806.14 131.59 C772.66 101.62, 737.6 71.39, 695.37 35.78 M807.18 130.29 C763.53 93.44, 724.73 56.94, 694.89 32.74 M813.79 112.23 C790.92 91.08, 769.44 72.48, 723.67 40.23 M809.72 111.83 C783.78 87.17, 754.83 62.94, 727.12 36.68" stroke="#a5d8ff" stroke-width="2" fill="none"></path><path d="M407.54 -1.47 C435.84 -2.79, 465.88 2.29, 495.3 4.32 C524.73 6.34, 557.04 7.31, 584.06 10.68 C611.09 14.04, 634.61 19.07, 657.46 24.51 C680.3 29.96, 702.53 36.89, 721.13 43.34 C739.73 49.79, 756.27 55.33, 769.05 63.21 C781.83 71.08, 791.17 82.07, 797.8 90.62 C804.43 99.16, 808.68 106.57, 808.81 114.45 C808.93 122.34, 805.23 129.92, 798.55 137.93 C791.87 145.93, 782.43 154.84, 768.71 162.49 C755 170.13, 735.14 176.94, 716.28 183.8 C697.42 190.65, 678.9 198.62, 655.56 203.63 C632.22 208.64, 603.96 210.4, 576.25 213.83 C548.54 217.27, 518.52 222.11, 489.31 224.23 C460.1 226.34, 430.76 226.85, 400.98 226.51 C371.2 226.17, 340.02 224.2, 310.64 222.18 C281.26 220.16, 251.39 218.11, 224.71 214.38 C198.03 210.65, 173.62 204.78, 150.58 199.8 C127.54 194.83, 105 191.18, 86.48 184.51 C67.96 177.84, 51.99 167.55, 39.46 159.8 C26.93 152.05, 17.78 145.91, 11.29 138.01 C4.81 130.1, 0.33 120.57, 0.55 112.37 C0.77 104.17, 5.74 97.24, 12.61 88.8 C19.47 80.35, 28.96 69.53, 41.75 61.7 C54.54 53.88, 70.63 48.11, 89.34 41.82 C108.05 35.54, 130.58 29.13, 154.01 24.01 C177.44 18.88, 202.75 14.8, 229.92 11.06 C257.09 7.33, 268.78 2.35, 317.01 1.58 C365.25 0.81, 469.48 3.7, 519.35 6.45 C569.23 9.2, 618.43 16.29, 616.26 18.07 M295.64 6.56 C321.34 2.08, 357.15 -1.15, 387.14 -2.2 C417.12 -3.25, 445.98 -1.75, 475.55 0.26 C505.11 2.28, 536.41 6.28, 564.52 9.88 C592.63 13.47, 620.08 16.84, 644.2 21.82 C668.33 26.79, 690.15 33.2, 709.27 39.71 C728.39 46.21, 745.33 53.23, 758.95 60.85 C772.56 68.47, 782.87 77.61, 790.98 85.44 C799.08 93.27, 805.51 100.11, 807.56 107.82 C809.61 115.53, 808.39 123.77, 803.27 131.72 C798.16 139.66, 788.9 147.21, 776.89 155.49 C764.87 163.77, 749.55 173.84, 731.18 181.4 C712.81 188.95, 689.65 195.13, 666.69 200.83 C643.73 206.52, 619.12 211.86, 593.4 215.55 C567.69 219.24, 541.06 221.34, 512.42 222.96 C483.78 224.58, 451.46 224.64, 421.56 225.28 C391.66 225.91, 362.79 227.83, 333.01 226.78 C303.23 225.73, 270.57 222.14, 242.86 218.99 C215.14 215.84, 190.97 213.21, 166.71 207.87 C142.45 202.53, 117.4 194.18, 97.28 186.96 C77.16 179.75, 60.1 171.92, 46 164.59 C31.9 157.25, 19.81 151.17, 12.66 142.95 C5.51 134.74, 4.4 123.62, 3.11 115.3 C1.83 106.98, -0.41 101.12, 4.97 93.04 C10.36 84.97, 23.74 74.73, 35.41 66.88 C47.08 59.02, 57.64 51.92, 74.99 45.91 C92.34 39.89, 116.35 36.63, 139.51 30.78 C162.68 24.93, 188.14 15.42, 213.98 10.82 C239.82 6.21, 280.01 3.62, 294.55 3.14 C309.09 2.66, 298.78 6.44, 301.24 7.96" stroke="#1971c2" stroke-width="4" fill="none"></path></g><g stroke-linecap="round"><g transform="translate(113.6875 278.58430954830453) rotate(0 -2.944367180019583 67.6724868943636)"><path d="M0.01 -0.27 C-1.09 22.18, -4.92 112.81, -5.9 135.17 M-1.45 -1.46 C-2.23 21.17, -3.32 114.11, -3.66 136.8" stroke="#1971c2" stroke-width="4" fill="none"></path></g></g><mask></mask><g stroke-linecap="round"><g transform="translate(921.1874999999995 266.08430954830453) rotate(0 -1.2759180409135524 72.05581559383313)"><path d="M-0.9 0.17 C-1.46 24.21, -3.24 119.61, -3.38 143.92 M0.83 -0.78 C0.64 23.38, -0.65 120.72, -1.14 144.89" stroke="#1971c2" stroke-width="4" fill="none"></path></g></g><mask></mask><g transform="translate(10 504.14313307771624) rotate(0 168.046875 46.691176470588175)"><text x="0" y="0" font-family="Virgil, Segoe UI Emoji" font-size="74.70588235294112px" fill="#1e1e1e" text-anchor="start" style="white-space: pre;" direction="ltr" dominant-baseline="text-before-edge">E&lt;string&gt;</text></g><g transform="translate(427.53339357622735 543.2500000000006) rotate(0 130.703125 46.691176470588175)"><text x="0" y="0" font-family="Virgil, Segoe UI Emoji" font-size="74.70588235294112px" fill="#1e1e1e" text-anchor="start" style="white-space: pre;" direction="ltr" dominant-baseline="text-before-edge">E&lt;bool&gt;</text></g><g transform="translate(782.3771435762269 503.2500000000008) rotate(0 112.03125 46.691176470588175)"><text x="0" y="0" font-family="Virgil, Segoe UI Emoji" font-size="74.70588235294112px" fill="#1e1e1e" text-anchor="start" style="white-space: pre;" direction="ltr" dominant-baseline="text-before-edge">E&lt;int&gt;</text></g><g stroke-linecap="round"><g transform="translate(231.01110803952884 917.4411764705889) rotate(0 0.34343473623874843 -154.0199487378029)"><path d="M-0.41 0.33 C-0.44 -50.6, -1.06 -255.19, -1.11 -306.68 M1.57 -0.54 C2.01 -51.72, 1.74 -257.15, 1.2 -308.37" stroke="#e03131" stroke-width="4" fill="none"></path></g><g transform="translate(231.01110803952884 917.4411764705889) rotate(0 0.34343473623874843 -154.0199487378029)"><path d="M12.16 -281.52 C10.92 -287.06, 5.44 -292.6, 0.38 -309.24 M11.68 -281.21 C8.26 -289.7, 4.23 -300.36, 0.31 -307.78" stroke="#e03131" stroke-width="4" fill="none"></path></g><g transform="translate(231.01110803952884 917.4411764705889) rotate(0 0.34343473623874843 -154.0199487378029)"><path d="M-8.36 -281.42 C-5.07 -286.91, -6.03 -292.47, 0.38 -309.24 M-8.84 -281.11 C-4.7 -289.71, -1.19 -300.4, 0.31 -307.78" stroke="#e03131" stroke-width="4" fill="none"></path></g></g><mask></mask><g stroke-linecap="round"><g transform="translate(545.153218037764 889.9411764705889) rotate(0 0.8248684239589466 -120.151660285145)"><path d="M0.82 -0.35 C0.72 -40.21, -0.17 -199.92, -0.25 -239.95 M-0.21 -1.58 C0.02 -41.17, 1.97 -198.74, 1.89 -238.39" stroke="#e03131" stroke-width="4" fill="none"></path></g><g transform="translate(545.153218037764 889.9411764705889) rotate(0 0.8248684239589466 -120.151660285145)"><path d="M11.39 -211.96 C8.93 -220.15, 4.68 -227.23, 0.53 -237.73 M12.83 -210.05 C9.71 -219.68, 6.65 -226.95, 2.08 -237.48" stroke="#e03131" stroke-width="4" fill="none"></path></g><g transform="translate(545.153218037764 889.9411764705889) rotate(0 0.8248684239589466 -120.151660285145)"><path d="M-9.13 -212.09 C-4.86 -220.38, -2.38 -227.41, 0.53 -237.73 M-7.69 -210.18 C-4.5 -219.83, -1.27 -227.06, 2.08 -237.48" stroke="#e03131" stroke-width="4" fill="none"></path></g></g><mask></mask><g stroke-linecap="round"><g transform="translate(855.5802685762269 942.4411764705889) rotate(0 1.3468863903290185 -167.25339557737107)"><path d="M2.17 -0.75 C2.92 -55.2, 2.88 -274.73, 2.61 -329.19 M-0.09 -3.62 C0.46 -58.74, -0.64 -279.09, 0.43 -333.76" stroke="#e03131" stroke-width="4" fill="none"></path></g><g transform="translate(855.5802685762269 942.4411764705889) rotate(0 1.3468863903290185 -167.25339557737107)"><path d="M9.46 -305.36 C9.82 -314.79, 9.88 -315.86, 4.05 -336.35 M12.06 -304.68 C7.38 -315.4, 2.02 -328.64, 2.1 -332.75" stroke="#e03131" stroke-width="4" fill="none"></path></g><g transform="translate(855.5802685762269 942.4411764705889) rotate(0 1.3468863903290185 -167.25339557737107)"><path d="M-11.06 -305.48 C-5.91 -315.19, -1.05 -316.23, 4.05 -336.35 M-8.46 -304.8 C-5.2 -315.66, -2.62 -328.85, 2.1 -332.75" stroke="#e03131" stroke-width="4" fill="none"></path></g></g><mask></mask><g transform="translate(367.24693524289387 394.52450980392234) rotate(0 141.3333333333336 44.16666666666674)"><text x="0" y="0" font-family="Virgil, Segoe UI Emoji" font-size="70.6666666666668px" fill="#e03131" text-anchor="start" style="white-space: pre;" direction="ltr" dominant-baseline="text-before-edge">Elevated</text></g></svg>
