<svg version="1.1" xmlns="http://www.w3.org/2000/svg" viewBox="0 0 1582.5138926542315 294.99999999999955" width="1582.5138926542315" height="294.99999999999955">
  <!-- svg-source:excalidraw -->
  
  <defs>
    <style class="style-fonts">
      @font-face {
        font-family: "Virgil";
        src: url("https://cdn.jsdelivr.net/gh/max32002/max-hana@1.1/webfont/HanaMinA.woff2");
      }
      @font-face {
        font-family: "Cascadia";
        src: url("https://excalidraw.com/Cascadia.woff2");
      }
    </style>
    
  </defs>
  <rect x="0" y="0" width="1582.5138926542315" height="294.99999999999955" fill="#ffffff"></rect><g stroke-linecap="round" transform="translate(148.05236760241306 17.185913085937045) rotate(0 147 56.5)"><path d="M28.25 0 M28.25 0 C103.25 0.03, 176.83 0.1, 265.75 0 M28.25 0 C104.91 -0.85, 182.61 -0.62, 265.75 0 M265.75 0 C284.92 0.22, 294.27 10.12, 294 28.25 M265.75 0 C285.66 -0.84, 295.9 9.89, 294 28.25 M294 28.25 C293.11 49.77, 294.51 67.84, 294 84.75 M294 28.25 C292.62 41.83, 293.06 56.07, 294 84.75 M294 84.75 C295.26 103.6, 283.46 111.2, 265.75 113 M294 84.75 C292.51 103.62, 285.66 114.1, 265.75 113 M265.75 113 C171.66 110.57, 76.18 112.47, 28.25 113 M265.75 113 C189.7 111.55, 111.97 111.74, 28.25 113 M28.25 113 C9.14 111.15, 0.65 104.71, 0 84.75 M28.25 113 C9.59 114.23, -0.5 104.77, 0 84.75 M0 84.75 C-1.16 70.47, -0.02 53.09, 0 28.25 M0 84.75 C0.63 71.37, 0.71 58.76, 0 28.25 M0 28.25 C-1.23 8.7, 8.75 -1, 28.25 0 M0 28.25 C-0.99 7.43, 8.25 -1.76, 28.25 0" stroke="#000000" stroke-width="1" fill="none"></path></g><g transform="translate(190.46252385241306 51.185913085937045) rotate(0 104.58984375 22.5)"><text x="104.58984375" y="0" font-family="Virgil, Segoe UI Emoji" font-size="36px" fill="#000000" text-anchor="middle" style="white-space: pre;" direction="ltr" dominant-baseline="text-before-edge">FindUserById</text></g><g mask="url(#mask--s353KUqyY1AIVju5EZ4_)" stroke-linecap="round"><g transform="translate(10.719034269079572 77.85257975260402) rotate(0 66.85742476719142 -1.628603843897963)"><path d="M-0.72 0.3 C21.82 0.03, 112.2 -1.39, 134.43 -1.78 M1.1 -0.59 C23.65 -1.2, 112.32 -2.95, 134.06 -3.55" stroke="#000000" stroke-width="1" fill="none"></path></g><g transform="translate(10.719034269079572 77.85257975260402) rotate(0 66.85742476719142 -1.628603843897963)"><path d="M106.61 9.19 C113.83 3.85, 119.93 2.67, 135.24 -3.21 M106.59 6.99 C115.62 4.07, 124 0.82, 133.98 -4.1" stroke="#000000" stroke-width="1" fill="none"></path></g><g transform="translate(10.719034269079572 77.85257975260402) rotate(0 66.85742476719142 -1.628603843897963)"><path d="M106.14 -11.32 C113.44 -11.83, 119.65 -8.19, 135.24 -3.21 M106.11 -13.52 C115.32 -10.07, 123.85 -6.94, 133.98 -4.1" stroke="#000000" stroke-width="1" fill="none"></path></g></g><mask id="mask--s353KUqyY1AIVju5EZ4_"><rect x="0" y="0" fill="#fff" width="244.05236760241328" height="180.30841891188857"></rect><rect x="63.67476343574643" y="54.12466017296174" fill="#000" width="27.421875" height="45" opacity="1"></rect></mask><g transform="translate(63.67476343574643 54.12466017296174) rotate(0 13.901695600524555 22.099315735744312)"><text x="13.7109375" y="0" font-family="Virgil, Segoe UI Emoji" font-size="36px" fill="#000000" text-anchor="middle" style="white-space: pre;" direction="ltr" dominant-baseline="text-before-edge">id</text></g><g stroke-linecap="round"><g transform="translate(443.052367602413 89.21242656584263) rotate(0 86.3168648263051 63.35550267285947)"><path d="M-0.67 0.38 C28.03 21.46, 144.3 106.14, 173.3 127.18 M1.19 -0.47 C29.65 20.21, 143.86 104.02, 172.44 125.43" stroke="#ff0000" stroke-width="4" fill="none"></path></g><g transform="translate(443.052367602413 89.21242656584263) rotate(0 86.3168648263051 63.35550267285947)"><path d="M144.31 117.18 C156.17 120.74, 166.48 124.02, 173.14 126.36 M144.2 117.25 C151.23 118.55, 159.71 121.49, 172.35 124.8" stroke="#ff0000" stroke-width="4" fill="none"></path></g><g transform="translate(443.052367602413 89.21242656584263) rotate(0 86.3168648263051 63.35550267285947)"><path d="M156.51 100.69 C163.69 110.64, 169.21 120.38, 173.14 126.36 M156.4 100.76 C160.36 106.42, 165.63 113.71, 172.35 124.8" stroke="#ff0000" stroke-width="4" fill="none"></path></g></g><mask></mask><g stroke-linecap="round" transform="translate(587.9259526554403 21.35257975260447) rotate(0 147 56.5)"><path d="M28.25 0 M28.25 0 C87.31 0.01, 144.58 -0.05, 265.75 0 M28.25 0 C108.55 0.9, 187.9 1.02, 265.75 0 M265.75 0 C284.41 -1.08, 295.63 9.73, 294 28.25 M265.75 0 C284.37 -1.44, 292 10.42, 294 28.25 M294 28.25 C296.08 41.44, 294.11 50.98, 294 84.75 M294 28.25 C294.1 40.58, 294.62 51.23, 294 84.75 M294 84.75 C293.23 104.21, 282.6 112.58, 265.75 113 M294 84.75 C294.32 104.1, 283.93 112, 265.75 113 M265.75 113 C179.44 111.17, 93.15 111.94, 28.25 113 M265.75 113 C180.92 114.5, 96.2 113.33, 28.25 113 M28.25 113 C7.51 111.35, 0.94 103.07, 0 84.75 M28.25 113 C8.01 111.37, 1.02 102.98, 0 84.75 M0 84.75 C0.05 61.6, -0.47 40.24, 0 28.25 M0 84.75 C-0.26 69.86, 0.13 57.11, 0 28.25 M0 28.25 C-0.66 9.95, 8.63 1.12, 28.25 0 M0 28.25 C1.69 7.61, 8.89 1.07, 28.25 0" stroke="#000000" stroke-width="1" fill="none"></path></g><g transform="translate(635.2579839054403 55.35257975260447) rotate(0 99.66796875 22.5)"><text x="99.66796875" y="0" font-family="Virgil, Segoe UI Emoji" font-size="36px" fill="#000000" text-anchor="middle" style="white-space: pre;" direction="ltr" dominant-baseline="text-before-edge">GetFromDTO</text></g><g stroke-linecap="round"><g transform="translate(882.9259526554405 51.17173550688722) rotate(0 82.50935805335962 -0.2647344034025707)"><path d="M0.16 0.42 C27.83 0.24, 138.48 -0.84, 166.23 -0.95 M-1.21 -0.4 C26.34 -0.43, 137.64 0.09, 165.57 0.35" stroke="#00ff00" stroke-width="4" fill="none"></path></g><g transform="translate(882.9259526554405 51.17173550688722) rotate(0 82.50935805335962 -0.2647344034025707)"><path d="M138.02 11.36 C145.53 8.85, 155.63 5.04, 166.27 0.18 M137.22 9.8 C143.31 8.34, 150.24 5.6, 165.12 1.35" stroke="#00ff00" stroke-width="4" fill="none"></path></g><g transform="translate(882.9259526554405 51.17173550688722) rotate(0 82.50935805335962 -0.2647344034025707)"><path d="M138.15 -9.16 C145.65 -5.17, 155.71 -2.46, 166.27 0.18 M137.36 -10.72 C143.58 -7.13, 150.48 -4.83, 165.12 1.35" stroke="#00ff00" stroke-width="4" fill="none"></path></g></g><mask></mask><g stroke-linecap="round"><g transform="translate(882.9259526554403 87.89252788767499) rotate(0 85.92534920697591 61.07852412573558)"><path d="M0.56 -0.44 C29.28 20.14, 143.87 103.13, 172.46 123.87 M-0.6 -1.72 C28.02 18.44, 143.32 101.27, 172.03 121.88" stroke="#ff0000" stroke-width="4" fill="none"></path></g><g transform="translate(882.9259526554403 87.89252788767499) rotate(0 85.92534920697591 61.07852412573558)"><path d="M142.41 115.42 C152.64 117.22, 161.99 118.55, 170.94 123.51 M142.27 114.21 C151.37 116.68, 160.93 120.07, 172.66 121.89" stroke="#ff0000" stroke-width="4" fill="none"></path></g><g transform="translate(882.9259526554403 87.89252788767499) rotate(0 85.92534920697591 61.07852412573558)"><path d="M154.38 98.75 C160.92 105.84, 166.51 112.4, 170.94 123.51 M154.24 97.54 C159.54 105.2, 165.32 113.85, 172.66 121.89" stroke="#ff0000" stroke-width="4" fill="none"></path></g></g><mask></mask><g stroke-linecap="round"><g transform="translate(444.95067346131 62.812675305649464) rotate(0 70.78797155160456 -0.12652766786800385)"><path d="M2.31 0.58 C25.67 1.11, 118.55 2.34, 141.46 2.2 M0.12 -1.58 C23.12 -1.82, 117.06 -2.88, 140.01 -2.28" stroke="#00ff00" stroke-width="4" fill="none"></path></g><g transform="translate(444.95067346131 62.812675305649464) rotate(0 70.78797155160456 -0.12652766786800385)"><path d="M112.6 9.94 C123.02 3.52, 129.26 3.62, 140.65 -2.66 M110 8.19 C117.75 7.18, 126.61 2.81, 138.88 -4.09" stroke="#00ff00" stroke-width="4" fill="none"></path></g><g transform="translate(444.95067346131 62.812675305649464) rotate(0 70.78797155160456 -0.12652766786800385)"><path d="M112.69 -10.59 C122.93 -9.88, 129.14 -2.67, 140.65 -2.66 M110.09 -12.33 C117.46 -8.46, 126.31 -7.97, 138.88 -4.09" stroke="#00ff00" stroke-width="4" fill="none"></path></g></g><mask></mask><g stroke-linecap="round" transform="translate(1052.7411851827885 20.965941112550354) rotate(0 147 56.5)"><path d="M28.25 0 M28.25 0 C119.67 -1.18, 209.02 0.33, 265.75 0 M28.25 0 C102.55 1.61, 177.56 1.38, 265.75 0 M265.75 0 C283.68 1.98, 295.26 9.43, 294 28.25 M265.75 0 C283.29 -2.07, 292.51 9.45, 294 28.25 M294 28.25 C292.81 47.08, 294.89 65.47, 294 84.75 M294 28.25 C293.8 43.58, 294.68 59.08, 294 84.75 M294 84.75 C292.39 102.64, 284.31 111.15, 265.75 113 M294 84.75 C294.74 104.88, 284.76 114.23, 265.75 113 M265.75 113 C198.21 110.79, 132.22 113.18, 28.25 113 M265.75 113 C200.93 111.37, 136.1 111.22, 28.25 113 M28.25 113 C11.34 112.81, -1.23 102.87, 0 84.75 M28.25 113 C8.65 111.85, -0.99 101.59, 0 84.75 M0 84.75 C1.64 70.02, 0.97 55.81, 0 28.25 M0 84.75 C-0.64 65.11, -0.9 43.68, 0 28.25 M0 28.25 C0.47 8.9, 9.66 1.13, 28.25 0 M0 28.25 C1.49 11.17, 11.7 1.06, 28.25 0" stroke="#000000" stroke-width="1" fill="none"></path></g><g transform="translate(1171.6161851827885 54.965941112550354) rotate(0 28.125 22.5)"><text x="28.125" y="0" font-family="Virgil, Segoe UI Emoji" font-size="36px" fill="#000000" text-anchor="middle" style="white-space: pre;" direction="ltr" dominant-baseline="text-before-edge">Foo</text></g><g stroke-linecap="round"><g transform="translate(1350.0745185161215 55.965941112550354) rotate(0 103.46019094864812 0.318901265431208)"><path d="M0.98 0.19 C35.48 0.34, 172.72 0.03, 206.89 0.25 M0.03 -0.75 C34.37 -0.41, 171.17 1.36, 205.88 1.39" stroke="#00ff00" stroke-width="4" fill="none"></path></g><g transform="translate(1350.0745185161215 55.965941112550354) rotate(0 103.46019094864812 0.318901265431208)"><path d="M177.93 11.25 C184.65 6.54, 195 3.58, 206.22 0.49 M177.05 10.53 C188.18 7.44, 200.58 3.9, 206.86 0.66" stroke="#00ff00" stroke-width="4" fill="none"></path></g><g transform="translate(1350.0745185161215 55.965941112550354) rotate(0 103.46019094864812 0.318901265431208)"><path d="M178.09 -9.27 C184.65 -8, 194.96 -4.99, 206.22 0.49 M177.21 -9.99 C188.41 -4.89, 200.74 -0.25, 206.86 0.66" stroke="#00ff00" stroke-width="4" fill="none"></path></g></g><mask></mask><g stroke-linecap="round"><g transform="translate(1348.8736763157 98.46594111255035) rotate(0 82.48556013994562 56.77007750967829)"><path d="M-0.11 -0.75 C13.9 8.45, 57.64 36.45, 85.03 55.39 C112.43 74.33, 150.97 103.12, 164.27 112.87 M-1.63 1.47 C12.65 10.29, 59.16 34.74, 87.2 53.54 C115.24 72.34, 153.68 104.56, 166.6 114.29" stroke="#ff0000" stroke-width="4" fill="none"></path></g><g transform="translate(1348.8736763157 98.46594111255035) rotate(0 82.48556013994562 56.77007750967829)"><path d="M136.87 103.14 C149.87 106.72, 160.2 111.18, 168.58 115.55 M137.47 104.89 C147.1 108.44, 156.18 110.06, 166.22 114.6" stroke="#ff0000" stroke-width="4" fill="none"></path></g><g transform="translate(1348.8736763157 98.46594111255035) rotate(0 82.48556013994562 56.77007750967829)"><path d="M149.58 87.03 C157.76 96.74, 163.24 107.35, 168.58 115.55 M150.19 88.78 C155.9 97.07, 161.16 103.53, 166.22 114.6" stroke="#ff0000" stroke-width="4" fill="none"></path></g></g><mask></mask><g stroke-linecap="round"><g transform="translate(34.950673461309776 216.66666666666652) rotate(0 767.5659357692672 -1.5026702954858138)"><path d="M-2.43 1.22 C253.03 1.59, 1276.48 0.21, 1532.51 0.47 M1.44 -0.59 C257.77 -0.98, 1282.6 -4.18, 1537.56 -4.29" stroke="#ff0000" stroke-width="4" fill="none"></path></g><g transform="translate(34.950673461309776 216.66666666666652) rotate(0 767.5659357692672 -1.5026702954858138)"><path d="M1511.13 2.47 C1518.38 1.71, 1529.86 3.03, 1537.59 -6.54 M1510.33 6.99 C1517.4 2.39, 1520.58 2.31, 1535.58 -4.71" stroke="#ff0000" stroke-width="4" fill="none"></path></g><g transform="translate(34.950673461309776 216.66666666666652) rotate(0 767.5659357692672 -1.5026702954858138)"><path d="M1511.09 -18.05 C1518.09 -12.85, 1529.59 -5.56, 1537.59 -6.54 M1510.29 -13.53 C1517.11 -13.83, 1520.29 -9.6, 1535.58 -4.71" stroke="#ff0000" stroke-width="4" fill="none"></path></g></g><mask></mask><g transform="translate(1396.6173401279764 10) rotate(0 36 22.5)"><text x="0" y="0" font-family="Virgil, Segoe UI Emoji" font-size="36px" fill="#2f9e44" text-anchor="start" style="white-space: pre;" direction="ltr" dominant-baseline="text-before-edge">Some</text></g><g transform="translate(1414.9506734613094 239.99999999999955) rotate(0 36 22.5)"><text x="0" y="0" font-family="Virgil, Segoe UI Emoji" font-size="36px" fill="#e03131" text-anchor="start" style="white-space: pre;" direction="ltr" dominant-baseline="text-before-edge">None</text></g></svg>
