<?xml version="1.0"?><svg xmlns="http://www.w3.org/2000/svg" viewBox="0 0 100 100"><linearGradient id="a" gradientUnits="userSpaceOnUse" x1="50" y1="22.624" x2="50" y2="79.344"><stop offset="0" stop-color="#f5e6c8"/><stop offset=".509" stop-color="#f8c788"/><stop offset="1" stop-color="#f5e6c8"/></linearGradient><circle cx="50" cy="50" r="40" fill="url(#a)" stroke="#f8b26a" stroke-width="3" stroke-miterlimit="10"/><path d="M58.905 76.742l-3.45-1.191a16.715 16.715 0 0 0-10.909 0l-3.45 1.191C35.64 77.905 30.5 73.745 30.5 68.167c0-5.578 5.14-9.738 10.595-8.576l3.45 1.191a16.715 16.715 0 0 0 10.909 0l3.45-1.191C64.36 58.429 69.5 62.589 69.5 68.167s-5.14 9.738-10.595 8.575z"/><g><path d="M66.501 29.096s-7.629 7.534-9.821 11.188c2.432 2.435 8.738 7.982 10.969 10.565" fill="none" stroke="#000" stroke-width="4.357" stroke-linecap="round" stroke-linejoin="round" stroke-miterlimit="10"/><path d="M57.864 40.106c3.232-.33 12.399-.031 15.631-.361" fill="none" stroke="#000" stroke-width="4.357" stroke-linecap="round" stroke-linejoin="round" stroke-miterlimit="10"/></g><g><path d="M33.499 29.096s7.629 7.534 9.821 11.188c-2.432 2.435-8.738 7.982-10.969 10.565" fill="none" stroke="#000" stroke-width="4.357" stroke-linecap="round" stroke-linejoin="round" stroke-miterlimit="10"/><path d="M42.137 40.106c-3.232-.33-12.399-.031-15.631-.361" fill="none" stroke="#000" stroke-width="4.357" stroke-linecap="round" stroke-linejoin="round" stroke-miterlimit="10"/></g><metadata xmlns:d="https://loading.io/stock/">
<d:name>panic</d:name>
<d:tags>panic,rush,nerous,suffer,pain,upset,yell,cry,screaming,shout</d:tags>
<d:license>by</d:license>
<d:slug>tjl0st</d:slug>
</metadata></svg>