<svg version="1.1" xmlns="http://www.w3.org/2000/svg" viewBox="0 0 1566.49075266344 294.9999999999998" width="1566.49075266344" height="294.9999999999998">
  <!-- svg-source:excalidraw -->
  
  <defs>
    <style class="style-fonts">
      @font-face {
        font-family: "Virgil";
        src: url("https://cdn.jsdelivr.net/gh/max32002/max-hana@1.1/webfont/HanaMinA.woff2");
      }
      @font-face {
        font-family: "Cascadia";
        src: url("https://excalidraw.com/Cascadia.woff2");
      }
    </style>
    
  </defs>
  <rect x="0" y="0" width="1566.49075266344" height="294.9999999999998" fill="#ffffff"></rect><g stroke-linecap="round" transform="translate(144.8107289300612 17.185913085937273) rotate(0 141.5 56.5)"><path d="M28.25 0 M28.25 0 C95.09 1.1, 160.71 0.83, 254.75 0 M28.25 0 C104.84 -1.12, 180.44 -0.84, 254.75 0 M254.75 0 C275.03 -1.7, 281.01 11.26, 283 28.25 M254.75 0 C271.62 2.19, 280.76 7.93, 283 28.25 M283 28.25 C283.39 41.88, 283.43 55.66, 283 84.75 M283 28.25 C283.69 40.94, 283.54 51.6, 283 84.75 M283 84.75 C281.89 104.29, 272.29 112.72, 254.75 113 M283 84.75 C281.62 104.15, 275.69 114.29, 254.75 113 M254.75 113 C200.37 113.56, 144.16 113.5, 28.25 113 M254.75 113 C179.54 112.47, 103.36 112.59, 28.25 113 M28.25 113 C9.24 111.92, 1.63 103.9, 0 84.75 M28.25 113 C9.2 111.56, -2 104.58, 0 84.75 M0 84.75 C1.89 74.08, -0.08 59.76, 0 28.25 M0 84.75 C0.83 73.38, 1.35 60.31, 0 28.25 M0 28.25 C-0.77 10.04, 7.43 -0.42, 28.25 0 M0 28.25 C0.32 9.93, 8.77 -1, 28.25 0" stroke="#000000" stroke-width="1" fill="none"></path></g><g transform="translate(178.3107289300612 51.18591308593727) rotate(0 108 22.5)"><text x="108" y="0" font-family="Virgil, Segoe UI Emoji" font-size="36px" fill="#000000" text-anchor="middle" style="white-space: pre;" direction="ltr" dominant-baseline="text-before-edge">FindUserById</text></g><g mask="url(#mask-N5NjV3vnTuU_f5Ig661Jr)" stroke-linecap="round"><g transform="translate(10.477395596727725 75.85257975260424) rotate(0 66.3703813030076 -0.3127121354946648)"><path d="M-0.48 0.44 C21.77 0.35, 110.99 0.53, 133.22 0.49 M1.47 -0.38 C23.67 -0.26, 110.91 -0.88, 132.73 -1.12" stroke="#000000" stroke-width="1" fill="none"></path></g><g transform="translate(10.477395596727725 75.85257975260424) rotate(0 66.3703813030076 -0.3127121354946648)"><path d="M105.36 10.86 C113.94 7.5, 121.15 3.19, 134.47 0.32 M103.78 10.33 C109.81 6.22, 116.1 5.28, 132.36 -1.12" stroke="#000000" stroke-width="1" fill="none"></path></g><g transform="translate(10.477395596727725 75.85257975260424) rotate(0 66.3703813030076 -0.3127121354946648)"><path d="M105.19 -9.66 C113.98 -7.35, 121.25 -6, 134.47 0.32 M103.6 -10.19 C109.47 -9.89, 115.79 -6.41, 132.36 -1.12" stroke="#000000" stroke-width="1" fill="none"></path></g></g><mask id="mask-N5NjV3vnTuU_f5Ig661Jr"><rect x="0" y="0" fill="#fff" width="242.81072893006143" height="176.34656041521674"></rect><rect x="58.64406226339458" y="53.10558942129798" fill="#000" width="36" height="45" opacity="1"></rect></mask><g transform="translate(58.64406226339459 53.10558942129798) rotate(0 18.20371463634075 22.434278195811594)"><text x="18" y="0" font-family="Virgil, Segoe UI Emoji" font-size="36px" fill="#000000" text-anchor="middle" style="white-space: pre;" direction="ltr" dominant-baseline="text-before-edge">id</text></g><g stroke-linecap="round"><g transform="translate(428.8107289300612 87.69222100251874) rotate(0 86.0995962415154 64.49728183798698)"><path d="M0.54 0.66 C29.2 22, 143.92 107.98, 172.83 129.04 M-0.63 -0.04 C27.77 20.9, 142.67 106.16, 171.72 127.46" stroke="#ff0000" stroke-width="4" fill="none"></path></g><g transform="translate(428.8107289300612 87.69222100251874) rotate(0 86.0995962415154 64.49728183798698)"><path d="M144.04 118.47 C155.51 123.46, 162.83 123.2, 173.56 125.75 M142.21 119.65 C153.86 122.52, 166.02 125.89, 172.63 126.61" stroke="#ff0000" stroke-width="4" fill="none"></path></g><g transform="translate(428.8107289300612 87.69222100251874) rotate(0 86.0995962415154 64.49728183798698)"><path d="M156.23 101.96 C163.27 113.17, 166.04 119.08, 173.56 125.75 M154.4 103.14 C161.07 112.45, 168.42 122.35, 172.63 126.61" stroke="#ff0000" stroke-width="4" fill="none"></path></g></g><mask></mask><g stroke-linecap="round" transform="translate(573.6843139830885 21.35257975260447) rotate(0 147 56.5)"><path d="M28.25 0 M28.25 0 C111.73 1.71, 190.89 -1.16, 265.75 0 M28.25 0 C120.58 -2.43, 213.92 -1.32, 265.75 0 M265.75 0 C283.83 0.01, 294.83 9.46, 294 28.25 M265.75 0 C286.67 -1.95, 295.68 10.83, 294 28.25 M294 28.25 C292.39 45.67, 295.01 64.01, 294 84.75 M294 28.25 C294.58 44.98, 293.11 60.91, 294 84.75 M294 84.75 C294.28 104.76, 284.92 113.22, 265.75 113 M294 84.75 C294.32 104.39, 285.66 112.16, 265.75 113 M265.75 113 C175.49 113.89, 83.16 115.4, 28.25 113 M265.75 113 C190 112.12, 114.95 111.9, 28.25 113 M28.25 113 C8.51 114.98, 1.26 103.6, 0 84.75 M28.25 113 C8.12 110.93, -1.49 103.62, 0 84.75 M0 84.75 C-1.74 64.38, 0.35 43.56, 0 28.25 M0 84.75 C-0.36 68.55, 0.52 52.52, 0 28.25 M0 28.25 C-1.61 8.47, 9.14 -1.85, 28.25 0 M0 28.25 C0.74 10.71, 9.59 1.23, 28.25 0" stroke="#000000" stroke-width="1" fill="none"></path></g><g transform="translate(621.0163452330885 55.35257975260447) rotate(0 99.66796875 22.5)"><text x="99.66796875" y="0" font-family="Virgil, Segoe UI Emoji" font-size="36px" fill="#000000" text-anchor="middle" style="white-space: pre;" direction="ltr" dominant-baseline="text-before-edge">GetFromDTO</text></g><g stroke-linecap="round"><g transform="translate(868.6843139830887 51.315341280325526) rotate(0 82.80979938626615 0.09857442279268014)"><path d="M-1.2 1.11 C26.1 1.36, 137.03 0.95, 164.64 0.53 M0.38 0.64 C27.96 0.68, 139.08 -0.8, 166.81 -0.99" stroke="#00ff00" stroke-width="4" fill="none"></path></g><g transform="translate(868.6843139830887 51.315341280325526) rotate(0 82.80979938626615 0.09857442279268014)"><path d="M140.57 7.85 C151.17 3.97, 158.43 0.52, 168.18 -1.74 M139.64 8.71 C147.85 7, 155.84 3.75, 166.95 -1.94" stroke="#00ff00" stroke-width="4" fill="none"></path></g><g transform="translate(868.6843139830887 51.315341280325526) rotate(0 82.80979938626615 0.09857442279268014)"><path d="M140.36 -12.67 C150.87 -8.92, 158.2 -4.73, 168.18 -1.74 M139.43 -11.81 C147.79 -7.36, 155.84 -4.44, 166.95 -1.94" stroke="#00ff00" stroke-width="4" fill="none"></path></g></g><mask></mask><g stroke-linecap="round"><g transform="translate(868.6843139830885 87.89252788767502) rotate(0 85.68508787264608 62.34072641466312)"><path d="M-1.03 1.14 C27.56 21.43, 141.7 102.3, 170.3 122.85 M0.64 0.7 C29.67 21.64, 143.67 103.68, 172.4 123.98" stroke="#ff0000" stroke-width="4" fill="none"></path></g><g transform="translate(868.6843139830885 87.89252788767502) rotate(0 85.68508787264608 62.34072641466312)"><path d="M145.4 114 C148.07 116.34, 156.51 118.67, 172.4 124.82 M144.22 116.56 C152.58 119.16, 161.17 120.1, 171.84 124.34" stroke="#ff0000" stroke-width="4" fill="none"></path></g><g transform="translate(868.6843139830885 87.89252788767502) rotate(0 85.68508787264608 62.34072641466312)"><path d="M157.32 97.3 C157.76 102.88, 163.81 108.56, 172.4 124.82 M156.15 99.86 C161.05 107.41, 166.04 113.39, 171.84 124.34" stroke="#ff0000" stroke-width="4" fill="none"></path></g></g><mask></mask><g stroke-linecap="round"><g transform="translate(430.70903478895815 62.55336117621117) rotate(0 70.25023850221186 0.8108694027959409)"><path d="M-2.73 -1.8 C20.66 -1.71, 114.33 2.72, 137.94 3.25 M0.99 3.39 C25.48 3.9, 120.63 -0.91, 143.23 -0.73" stroke="#00ff00" stroke-width="4" fill="none"></path></g><g transform="translate(430.70903478895815 62.55336117621117) rotate(0 70.25023850221186 0.8108694027959409)"><path d="M112.73 7.3 C123.81 6.93, 127.09 7.74, 143.32 2.9 M115.86 11.31 C121.41 5.63, 126.04 5.89, 141.94 -1" stroke="#00ff00" stroke-width="4" fill="none"></path></g><g transform="translate(430.70903478895815 62.55336117621117) rotate(0 70.25023850221186 0.8108694027959409)"><path d="M112.21 -13.22 C123.79 -9.18, 127.19 -3.96, 143.32 2.9 M115.35 -9.2 C121.31 -10.48, 126.05 -5.81, 141.94 -1" stroke="#00ff00" stroke-width="4" fill="none"></path></g></g><mask></mask><g stroke-linecap="round" transform="translate(1038.4995465104369 20.965941112550354) rotate(0 147 56.5)"><path d="M28.25 0 M28.25 0 C77.51 0.83, 124.5 2.16, 265.75 0 M28.25 0 C100.63 2.2, 172.03 2.14, 265.75 0 M265.75 0 C284.85 -1.91, 292.89 10.12, 294 28.25 M265.75 0 C283.1 -0.32, 292.62 9.99, 294 28.25 M294 28.25 C294.95 50.66, 295.49 72.85, 294 84.75 M294 28.25 C294.54 45.45, 294.9 63.59, 294 84.75 M294 84.75 C295.04 104.28, 284.41 111.92, 265.75 113 M294 84.75 C295.87 103.95, 284.37 111.56, 265.75 113 M265.75 113 C215.4 110.47, 166.16 112.28, 28.25 113 M265.75 113 C193.78 111.22, 123.29 111.61, 28.25 113 M28.25 113 C11.38 111.53, -0.77 104.21, 0 84.75 M28.25 113 C7.14 112.52, 0.32 104.1, 0 84.75 M0 84.75 C-1.16 67.79, -0.7 53.77, 0 28.25 M0 84.75 C-0.11 73.57, -0.4 61.84, 0 28.25 M0 28.25 C-0.61 7.67, 7.51 -1.65, 28.25 0 M0 28.25 C1.08 8.83, 8.01 -1.63, 28.25 0" stroke="#000000" stroke-width="1" fill="none"></path></g><g transform="translate(1157.3745465104369 54.965941112550354) rotate(0 28.125 22.5)"><text x="28.125" y="0" font-family="Virgil, Segoe UI Emoji" font-size="36px" fill="#000000" text-anchor="middle" style="white-space: pre;" direction="ltr" dominant-baseline="text-before-edge">Foo</text></g><g stroke-linecap="round"><g transform="translate(1335.83287984377 55.965941112550354) rotate(0 103.69448152656639 -0.011026514302939106)"><path d="M0.5 0.03 C35.25 0.02, 173.53 -0.3, 208.09 -0.02 M-0.7 -1.01 C34.03 -0.89, 173 0.85, 207.71 0.98" stroke="#00ff00" stroke-width="4" fill="none"></path></g><g transform="translate(1335.83287984377 55.965941112550354) rotate(0 103.69448152656639 -0.011026514302939106)"><path d="M179.48 12.81 C185.15 9.71, 195.5 6.18, 208.79 1.25 M178.79 10.86 C184.67 9.1, 191.97 7.36, 207.16 1.3" stroke="#00ff00" stroke-width="4" fill="none"></path></g><g transform="translate(1335.83287984377 55.965941112550354) rotate(0 103.69448152656639 -0.011026514302939106)"><path d="M179.65 -7.71 C185.29 -5.42, 195.59 -3.57, 208.79 1.25 M178.97 -9.66 C184.7 -7.22, 191.97 -4.76, 207.16 1.3" stroke="#00ff00" stroke-width="4" fill="none"></path></g></g><mask></mask><g stroke-linecap="round"><g transform="translate(1334.6320376433482 98.46594111255035) rotate(0 82.93419773777657 56.14597688180709)"><path d="M1.09 -1.02 C15.5 8.24, 59.52 36.55, 86.95 55.6 C114.38 74.66, 152.58 103.99, 165.67 113.31 M0.2 1.06 C14.48 9.98, 58.98 35.49, 86.46 53.87 C113.94 72.24, 151.85 101.61, 165.08 111.31" stroke="#ff0000" stroke-width="4" fill="none"></path></g><g transform="translate(1334.6320376433482 98.46594111255035) rotate(0 82.93419773777657 56.14597688180709)"><path d="M134.67 104.06 C147.4 105.88, 157.06 108.56, 163.17 110.2 M135.77 102.86 C146.86 106.12, 155.02 108.8, 165.22 111.9" stroke="#ff0000" stroke-width="4" fill="none"></path></g><g transform="translate(1334.6320376433482 98.46594111255035) rotate(0 82.93419773777657 56.14597688180709)"><path d="M146.98 87.64 C155.51 95.18, 160.96 103.46, 163.17 110.2 M148.08 86.44 C154.93 95.2, 158.96 103.38, 165.22 111.9" stroke="#ff0000" stroke-width="4" fill="none"></path></g></g><mask></mask><g stroke-linecap="round"><g transform="translate(20.70903478895805 216.66666666666652) rotate(0 767.7417626025152 -0.2777355882524972)"><path d="M2.04 1.72 C257.58 2.36, 1280.23 2.24, 1535.78 1.5 M-0.3 0.18 C254.71 0.22, 1278.29 -2.49, 1533.97 -2.69" stroke="#ff0000" stroke-width="4" fill="none"></path></g><g transform="translate(20.70903478895805 216.66666666666652) rotate(0 767.7417626025152 -0.2777355882524972)"><path d="M1508.25 8.74 C1519.12 3.71, 1524.17 -3.07, 1535.38 -5.27 M1507.63 8.74 C1512.87 5.16, 1522.32 2.76, 1534.31 -2.47" stroke="#ff0000" stroke-width="4" fill="none"></path></g><g transform="translate(20.70903478895805 216.66666666666652) rotate(0 767.7417626025152 -0.2777355882524972)"><path d="M1508.21 -11.78 C1518.75 -8.79, 1523.81 -7.56, 1535.38 -5.27 M1507.59 -11.78 C1512.6 -9.49, 1522.06 -6.02, 1534.31 -2.47" stroke="#ff0000" stroke-width="4" fill="none"></path></g></g><mask></mask><g transform="translate(1382.3757014556247 10) rotate(0 36 22.5)"><text x="0" y="0" font-family="Virgil, Segoe UI Emoji" font-size="36px" fill="#2f9e44" text-anchor="start" style="white-space: pre;" direction="ltr" dominant-baseline="text-before-edge">Good</text></g><g transform="translate(1400.7090347889582 239.99999999999977) rotate(0 27 22.5)"><text x="0" y="0" font-family="Virgil, Segoe UI Emoji" font-size="36px" fill="#e03131" text-anchor="start" style="white-space: pre;" direction="ltr" dominant-baseline="text-before-edge">Bad</text></g></svg>
