<svg version="1.1" xmlns="http://www.w3.org/2000/svg" viewBox="0 0 916.1504524994203 327.5" width="916.1504524994203" height="327.5">
  <!-- svg-source:excalidraw -->
  
  <defs>
    <style class="style-fonts">
      @font-face {
        font-family: "Virgil";
        src: url("https://cdn.jsdelivr.net/gh/max32002/max-hana@1.1/webfont/HanaMinA.woff2");
      }
      @font-face {
        font-family: "Cascadia";
        src: url("https://excalidraw.com/Cascadia.woff2");
      }
    </style>
    
  </defs>
  <rect x="0" y="0" width="916.1504524994203" height="327.5" fill="#ffffff"></rect><g stroke-linecap="round" transform="translate(249.22047768720438 10) rotate(0 146 56.5)"><path d="M28.25 0 M28.25 0 C98.05 0.35, 169.74 2.05, 263.75 0 M28.25 0 C95.27 -1.97, 160.54 -0.9, 263.75 0 M263.75 0 C281.91 1, 290.01 9.6, 292 28.25 M263.75 0 C283.27 1.76, 292.78 9.96, 292 28.25 M292 28.25 C291.08 43.75, 290.88 58.13, 292 84.75 M292 28.25 C292.11 41.38, 292.52 55.79, 292 84.75 M292 84.75 C293.74 103.74, 282.07 111.28, 263.75 113 M292 84.75 C291.59 104.58, 283.36 112.1, 263.75 113 M263.75 113 C200.04 112.05, 135 111.91, 28.25 113 M263.75 113 C211.08 111.57, 159.64 110.96, 28.25 113 M28.25 113 C7.58 114.68, 1.02 102.93, 0 84.75 M28.25 113 C7.49 112.78, -0.25 104.66, 0 84.75 M0 84.75 C1.25 71.4, 0.29 61.12, 0 28.25 M0 84.75 C-0.51 64.05, 0.46 40.76, 0 28.25 M0 28.25 C-1.99 11.26, 7.71 1.9, 28.25 0 M0 28.25 C-2.24 7.93, 7.73 1.57, 28.25 0" stroke="#000000" stroke-width="1" fill="none"></path></g><g transform="translate(290.6306339372044 44) rotate(0 104.58984375 22.5)"><text x="104.58984375" y="0" font-family="Virgil, Segoe UI Emoji" font-size="36px" fill="#000000" text-anchor="middle" style="white-space: pre;" direction="ltr" dominant-baseline="text-before-edge">FindUserById</text></g><g mask="url(#mask-hsclGBv7kJtNx6hNobzMA)" stroke-linecap="round"><g transform="translate(16.22047768720438 71) rotate(0 114.37919298036022 -2.5164518253131973)"><path d="M0.19 -0.23 C38.33 -0.69, 189.51 -2.38, 227.83 -3.14 M-1.17 -1.39 C37.41 -2.15, 191.41 -4.4, 229.93 -4.81" stroke="#000000" stroke-width="1" fill="none"></path></g><g transform="translate(16.22047768720438 71) rotate(0 114.37919298036022 -2.5164518253131973)"><path d="M201.5 3.87 C209.38 5.39, 212.67 0.86, 231.19 -5.48 M202.18 6.59 C212.14 2.31, 221.27 -2.01, 230.81 -5.16" stroke="#000000" stroke-width="1" fill="none"></path></g><g transform="translate(16.22047768720438 71) rotate(0 114.37919298036022 -2.5164518253131973)"><path d="M201.23 -16.65 C209.1 -10.73, 212.46 -10.85, 231.19 -5.48 M201.91 -13.93 C211.77 -11.03, 220.99 -8.16, 230.81 -5.16" stroke="#000000" stroke-width="1" fill="none"></path></g></g><mask id="mask-hsclGBv7kJtNx6hNobzMA"><rect x="0" y="0" fill="#fff" width="345.2204776872044" height="175.00573618235057"></rect><rect x="112.72047768720437" y="46.49713190882471" fill="#000" width="36" height="45" opacity="1"></rect></mask><g transform="translate(112.72047768720437 46.49713190882471) rotate(0 17.87919298036023 21.98641626586209)"><text x="18" y="0" font-family="Virgil, Segoe UI Emoji" font-size="36px" fill="#000000" text-anchor="middle" style="white-space: pre;" direction="ltr" dominant-baseline="text-before-edge">id</text></g><g mask="url(#mask-P98ScveOoGeAyuESNX5ii)" stroke-linecap="round"><g transform="translate(542.2204776872045 38.57593307593311) rotate(0 182.1022779351858 3.2062347910114113)"><path d="M1.14 -0.77 C61.99 0.28, 303.5 5.88, 363.93 7.18 M0.27 1.44 C61.05 2.08, 302.46 4.86, 362.87 5.46" stroke="#000000" stroke-width="1" fill="none"></path></g><g transform="translate(542.2204776872045 38.57593307593311) rotate(0 182.1022779351858 3.2062347910114113)"><path d="M333.29 15.06 C341.49 12.46, 346.97 9.12, 363.05 6.06 M334.21 15.05 C346.08 11.24, 356.14 7.39, 362.87 4.81" stroke="#000000" stroke-width="1" fill="none"></path></g><g transform="translate(542.2204776872045 38.57593307593311) rotate(0 182.1022779351858 3.2062347910114113)"><path d="M333.51 -5.46 C341.82 -3.9, 347.25 -3.08, 363.05 6.06 M334.44 -5.47 C346.29 -1.55, 356.26 2.33, 362.87 4.81" stroke="#000000" stroke-width="1" fill="none"></path></g></g><mask id="mask-P98ScveOoGeAyuESNX5ii"><rect x="0" y="0" fill="#fff" width="1006.3633348300616" height="145"></rect><rect x="605.3583125086329" y="19.287966537966668" fill="#000" width="237.8671875" height="45" opacity="1"></rect></mask><g transform="translate(605.3583125086329 19.287966537966668) rotate(0 118.96444311375731 22.49420132897785)"><text x="118.93359375" y="0" font-family="Virgil, Segoe UI Emoji" font-size="36px" fill="#000000" text-anchor="middle" style="white-space: pre;" direction="ltr" dominant-baseline="text-before-edge">Some UserDTO</text></g><g mask="url(#mask-Z1b9C8AGSjBe8Mfwf9eh5)" stroke-linecap="round"><g transform="translate(542.2204776872045 97.50702903158458) rotate(0 179.83458418729916 0.4815903361903793)"><path d="M-0.4 0.6 C59.3 0.42, 298 -0.31, 357.99 -0.33 M1.59 -0.13 C61.65 -0.16, 300.51 1.48, 360.07 1.27" stroke="#000000" stroke-width="1" fill="none"></path></g><g transform="translate(542.2204776872045 97.50702903158458) rotate(0 179.83458418729916 0.4815903361903793)"><path d="M332.86 9.48 C339.94 9.28, 349.25 6.48, 360.54 0.56 M332.14 11.01 C339.21 8.23, 346.23 7.07, 360.42 1.12" stroke="#000000" stroke-width="1" fill="none"></path></g><g transform="translate(542.2204776872045 97.50702903158458) rotate(0 179.83458418729916 0.4815903361903793)"><path d="M332.91 -11.05 C340.1 -5.45, 349.41 -2.46, 360.54 0.56 M332.18 -9.51 C339.43 -6.88, 346.44 -2.63, 360.42 1.12" stroke="#000000" stroke-width="1" fill="none"></path></g></g><mask id="mask-Z1b9C8AGSjBe8Mfwf9eh5"><rect x="0" y="0" fill="#fff" width="1001.4005878677356" height="197.94262949174072"></rect><rect x="683.2265484024699" y="74.78922880150662" fill="#000" width="77.16796875" height="45" opacity="1"></rect></mask><g transform="translate(683.22654840247 74.78922880150662) rotate(0 38.82851347203368 23.199390566268335)"><text x="38.583984375" y="0" font-family="Virgil, Segoe UI Emoji" font-size="36px" fill="#000000" text-anchor="middle" style="white-space: pre;" direction="ltr" dominant-baseline="text-before-edge">None</text></g><g stroke-linecap="round" transform="translate(249.4273960735649 204.5) rotate(0 147 56.5)"><path d="M28.25 0 M28.25 0 C77.16 -0.03, 123.89 -1.19, 265.75 0 M28.25 0 C91.11 0.33, 153.5 0.17, 265.75 0 M265.75 0 C283.76 1.76, 294.69 9.11, 294 28.25 M265.75 0 C286.31 2.25, 296 9.6, 294 28.25 M294 28.25 C294.38 44.44, 292.73 58.76, 294 84.75 M294 28.25 C293.98 44.25, 293.9 58.72, 294 84.75 M294 84.75 C294.38 101.61, 283.41 114.23, 265.75 113 M294 84.75 C294.66 103.34, 282.47 114.94, 265.75 113 M265.75 113 C182.22 111.16, 99.78 110.03, 28.25 113 M265.75 113 C175.78 114.98, 87.09 115.36, 28.25 113 M28.25 113 C10.32 114.1, -0.51 105.32, 0 84.75 M28.25 113 C11.08 111.05, -2.29 105.7, 0 84.75 M0 84.75 C-1.83 71.16, 0.82 59.76, 0 28.25 M0 84.75 C0.67 66.93, 0.49 51.43, 0 28.25 M0 28.25 C0.56 10.49, 9.68 -1.91, 28.25 0 M0 28.25 C-1.28 10.23, 7.93 -0.32, 28.25 0" stroke="#000000" stroke-width="1" fill="none"></path></g><g transform="translate(296.75942732356486 238.5) rotate(0 99.66796874999999 22.5)"><text x="99.66796875" y="0" font-family="Virgil, Segoe UI Emoji" font-size="36px" fill="#000000" text-anchor="middle" style="white-space: pre;" direction="ltr" dominant-baseline="text-before-edge">GetFromDTO</text></g><g mask="url(#mask-Pi0EilkIx0H7lKQfmQMBk)" stroke-linecap="round"><g transform="translate(10.427396073564893 263.5) rotate(0 117.81710069514811 -1.4323445055633783)"><path d="M-0.43 -0.44 C38.85 -0.89, 196.77 -2.08, 236.06 -2.43 M1.55 -1.71 C40.72 -2.02, 196.8 -1.15, 235.67 -1.12" stroke="#000000" stroke-width="1" fill="none"></path></g><g transform="translate(10.427396073564893 263.5) rotate(0 117.81710069514811 -1.4323445055633783)"><path d="M206.72 10.82 C216.13 6.31, 225.36 2.37, 234.37 -1.94 M208.2 10.03 C219.23 5.23, 229.05 0.35, 235.49 -0.68" stroke="#000000" stroke-width="1" fill="none"></path></g><g transform="translate(10.427396073564893 263.5) rotate(0 117.81710069514811 -1.4323445055633783)"><path d="M206.79 -9.7 C216.22 -7.36, 225.43 -4.45, 234.37 -1.94 M208.27 -10.49 C219.34 -7.33, 229.14 -4.26, 235.49 -0.68" stroke="#000000" stroke-width="1" fill="none"></path></g></g><mask id="mask-Pi0EilkIx0H7lKQfmQMBk"><rect x="0" y="0" fill="#fff" width="345.42739607356486" height="365.5"></rect><rect x="57.84341169856489" y="240" fill="#000" width="140.16796875" height="45" opacity="1"></rect></mask><g transform="translate(57.84341169856489 240) rotate(0 70.40108507014811 22.06765549443662)"><text x="70.083984375" y="0" font-family="Virgil, Segoe UI Emoji" font-size="36px" fill="#000000" text-anchor="middle" style="white-space: pre;" direction="ltr" dominant-baseline="text-before-edge">UserDTO</text></g><g mask="url(#mask-Cm3iLd1Zkk6BISLwOgh79)" stroke-linecap="round"><g transform="translate(543.4273960735649 234.5) rotate(0 171.81285441308822 -0.9989115364382997)"><path d="M0.34 -0.55 C57.59 -1.1, 287.28 -3.55, 344.57 -3.78 M-0.95 1.78 C56.05 1.4, 286.29 -1.73, 343.63 -2.65" stroke="#000000" stroke-width="1" fill="none"></path></g><g transform="translate(543.4273960735649 234.5) rotate(0 171.81285441308822 -0.9989115364382997)"><path d="M314.68 8.02 C325.22 2.97, 339.17 0.34, 343.32 -1.15 M315.33 7.16 C326.47 4.19, 338.15 -0.89, 343.37 -2.88" stroke="#000000" stroke-width="1" fill="none"></path></g><g transform="translate(543.4273960735649 234.5) rotate(0 171.81285441308822 -0.9989115364382997)"><path d="M314.38 -12.5 C324.96 -9.58, 339.03 -4.24, 343.32 -1.15 M315.03 -13.36 C326.47 -8.17, 338.26 -5.08, 343.37 -2.88" stroke="#000000" stroke-width="1" fill="none"></path></g></g><mask id="mask-Cm3iLd1Zkk6BISLwOgh79"><rect x="0" y="0" fill="#fff" width="987.9988246449935" height="337.5"></rect><rect x="634.7131103592792" y="210.5" fill="#000" width="162" height="45" opacity="1"></rect></mask><g transform="translate(634.7131103592792 210.5) rotate(0 80.52714012737388 23.0010884635617)"><text x="81" y="0" font-family="Virgil, Segoe UI Emoji" font-size="36px" fill="#000000" text-anchor="middle" style="white-space: pre;" direction="ltr" dominant-baseline="text-before-edge">Some User</text></g><g mask="url(#mask-uV4bntQbiSh2zU7RegtAC)" stroke-linecap="round"><g transform="translate(541.8932205398104 292) rotate(0 173.53248254225724 -0.06377413012080524)"><path d="M-0.49 1.05 C57.43 0.99, 289.47 -1.04, 347.56 -1.18 M1.45 0.56 C59.25 0.75, 289.11 0.61, 346.83 0.26" stroke="#000000" stroke-width="1" fill="none"></path></g><g transform="translate(541.8932205398104 292) rotate(0 173.53248254225724 -0.06377413012080524)"><path d="M320.42 11.29 C326.88 9.12, 337.6 6.25, 346.98 -0.25 M319.01 10.21 C324.46 8.03, 329.84 6.64, 347.32 0.63" stroke="#000000" stroke-width="1" fill="none"></path></g><g transform="translate(541.8932205398104 292) rotate(0 173.53248254225724 -0.06377413012080524)"><path d="M320.36 -9.23 C326.71 -5.24, 337.44 -1.95, 346.98 -0.25 M318.95 -10.31 C324.37 -8.1, 329.77 -5.11, 347.32 0.63" stroke="#000000" stroke-width="1" fill="none"></path></g></g><mask id="mask-uV4bntQbiSh2zU7RegtAC"><rect x="0" y="0" fill="#fff" width="989.0360776826675" height="393"></rect><rect x="679.4646491112389" y="269" fill="#000" width="72" height="45" opacity="1"></rect></mask><g transform="translate(679.4646491112389 269) rotate(0 35.96105397082869 22.936225869879195)"><text x="36" y="0" font-family="Virgil, Segoe UI Emoji" font-size="36px" fill="#000000" text-anchor="middle" style="white-space: pre;" direction="ltr" dominant-baseline="text-before-edge">None</text></g></svg>
