<svg version="1.1" xmlns="http://www.w3.org/2000/svg" viewBox="0 0 1113.7722791252245 299.9999999999991" width="1113.7722791252245" height="299.9999999999991">
  <!-- svg-source:excalidraw -->
  
  <defs>
    <style class="style-fonts">
      @font-face {
        font-family: "Virgil";
        src: url("https://cdn.jsdelivr.net/gh/max32002/max-hana@1.1/webfont/HanaMinA.woff2");
      }
      @font-face {
        font-family: "Cascadia";
        src: url("https://excalidraw.com/Cascadia.woff2");
      }
    </style>
    
  </defs>
  <rect x="0" y="0" width="1113.7722791252245" height="299.9999999999991" fill="#ffffff"></rect><g stroke-linecap="round" transform="translate(147.98080837942098 13.852579752603106) rotate(0 147 56.5)"><path d="M28.25 0 M28.25 0 C76.42 -1.95, 124.26 -0.19, 265.75 0 M28.25 0 C94.05 0.79, 157.71 0.57, 265.75 0 M265.75 0 C283.92 -1, 293.14 7.69, 294 28.25 M265.75 0 C283.41 -1.76, 293.74 10.8, 294 28.25 M294 28.25 C295.27 44.8, 292.58 57.96, 294 84.75 M294 28.25 C293.96 47.57, 293.84 67.96, 294 84.75 M294 84.75 C295.29 105.11, 286.57 113.92, 265.75 113 M294 84.75 C292.74 103.23, 284.21 111.3, 265.75 113 M265.75 113 C173.08 114.35, 79.77 115.71, 28.25 113 M265.75 113 C181.84 111.23, 97.63 110.91, 28.25 113 M28.25 113 C10.88 114.69, 1.4 104.36, 0 84.75 M28.25 113 C10.84 111.61, -0.42 103.77, 0 84.75 M0 84.75 C1.64 67.15, -1.9 51.24, 0 28.25 M0 84.75 C-0.77 65.05, 0.87 44.8, 0 28.25 M0 28.25 C1.28 10.23, 9.81 -0.89, 28.25 0 M0 28.25 C0.02 7.75, 9.59 2.29, 28.25 0" stroke="#000000" stroke-width="1" fill="none"></path></g><g transform="translate(186.98080837942098 47.852579752603106) rotate(0 108 22.5)"><text x="108" y="0" font-family="Virgil, Segoe UI Emoji" font-size="36px" fill="#000000" text-anchor="middle" style="white-space: pre;" direction="ltr" dominant-baseline="text-before-edge">FindUserById</text></g><g mask="url(#mask-gjKxKKPBDayoBGzVlZr3G)" stroke-linecap="round"><g transform="translate(10.647475046087038 74.51924641927008) rotate(0 66.87066913803744 -1.648795352848623)"><path d="M0.53 -0.32 C23.05 -0.67, 112.06 -2.61, 134.39 -2.98 M-0.65 -1.53 C21.87 -1.65, 111.5 -1.76, 133.99 -1.72" stroke="#000000" stroke-width="1" fill="none"></path></g><g transform="translate(10.647475046087038 74.51924641927008) rotate(0 66.87066913803744 -1.648795352848623)"><path d="M105.28 10.3 C111.74 7.89, 119.15 2.28, 133.28 -2.39 M105.3 7.78 C112.78 6.82, 119.61 3.92, 133.6 -1.16" stroke="#000000" stroke-width="1" fill="none"></path></g><g transform="translate(10.647475046087038 74.51924641927008) rotate(0 66.87066913803744 -1.648795352848623)"><path d="M105.28 -10.22 C111.59 -7.73, 119.01 -8.43, 133.28 -2.39 M105.29 -12.74 C112.69 -8.57, 119.52 -6.34, 133.6 -1.16" stroke="#000000" stroke-width="1" fill="none"></path></g></g><mask id="mask-gjKxKKPBDayoBGzVlZr3G"><rect x="0" y="0" fill="#fff" width="243.98080837942075" height="299.5192464192701"></rect><rect x="63.60320421275401" y="50.7913268396278" fill="#000" width="27.421875" height="45" opacity="1"></rect></mask><g transform="translate(63.60320421275401 50.7913268396278) rotate(0 13.914939971370472 22.079124226793652)"><text x="13.7109375" y="0" font-family="Virgil, Segoe UI Emoji" font-size="36px" fill="#000000" text-anchor="middle" style="white-space: pre;" direction="ltr" dominant-baseline="text-before-edge">id</text></g><g stroke-linecap="round"><g transform="translate(442.980808379421 85.8790932325087) rotate(0 87.51083153424611 63.06599446732832)"><path d="M1.16 -0.12 C29.71 20.98, 143.8 105.05, 172.39 126.04 M0.3 -1.22 C29.15 20.08, 146.14 106.01, 174.72 127.35" stroke="#ff0000" stroke-width="4" fill="none"></path></g><g transform="translate(442.980808379421 85.8790932325087) rotate(0 87.51083153424611 63.06599446732832)"><path d="M145.76 117.61 C156.36 121.2, 167.23 124.3, 172.99 126.34 M145.62 119.1 C151.97 121.12, 159.53 121.68, 174.49 127.82" stroke="#ff0000" stroke-width="4" fill="none"></path></g><g transform="translate(442.980808379421 85.8790932325087) rotate(0 87.51083153424611 63.06599446732832)"><path d="M157.96 101.11 C163.76 111.22, 169.9 120.73, 172.99 126.34 M157.83 102.61 C161.43 108.39, 166.26 112.63, 174.49 127.82" stroke="#ff0000" stroke-width="4" fill="none"></path></g></g><mask></mask><g stroke-linecap="round" transform="translate(587.8543934324475 18.019246419270985) rotate(0 147 56.5)"><path d="M28.25 0 M28.25 0 C121.77 0.67, 215.66 0.5, 265.75 0 M28.25 0 C78.87 2.03, 129.41 1.75, 265.75 0 M265.75 0 C283.79 1.12, 295.47 7.84, 294 28.25 M265.75 0 C284.05 1.07, 292.87 7.43, 294 28.25 M294 28.25 C294.98 47.82, 295.38 66.79, 294 84.75 M294 28.25 C293.53 47.07, 294.58 67.65, 294 84.75 M294 84.75 C295.35 103.26, 284.58 111.58, 265.75 113 M294 84.75 C295.87 104.8, 283.71 110.84, 265.75 113 M265.75 113 C197.24 112.98, 131.05 112.93, 28.25 113 M265.75 113 C185.11 111.87, 104.79 111.74, 28.25 113 M28.25 113 C10.93 114.6, -0.52 101.64, 0 84.75 M28.25 113 C10.17 114.15, -0.3 105.32, 0 84.75 M0 84.75 C-0.82 73.88, 0.77 60.84, 0 28.25 M0 84.75 C0.07 71.3, -0.75 56.32, 0 28.25 M0 28.25 C-0.61 9.02, 9.81 1.33, 28.25 0 M0 28.25 C1.49 10.06, 8.09 1.3, 28.25 0" stroke="#000000" stroke-width="1" fill="none"></path></g><g transform="translate(644.8543934324475 52.019246419270985) rotate(0 90 22.5)"><text x="90" y="0" font-family="Virgil, Segoe UI Emoji" font-size="36px" fill="#000000" text-anchor="middle" style="white-space: pre;" direction="ltr" dominant-baseline="text-before-edge">GetFromDTO</text></g><g stroke-linecap="round"><g transform="translate(882.8543934324484 84.5591945543415) rotate(0 86.36362879713556 61.36262072242366)"><path d="M-0.52 -1.04 C28.02 19.51, 142.21 101.81, 170.85 122.71 M1.41 1.03 C30.39 21.76, 145.06 103.54, 173.25 123.76" stroke="#ff0000" stroke-width="4" fill="none"></path></g><g transform="translate(882.8543934324484 84.5591945543415) rotate(0 86.36362879713556 61.36262072242366)"><path d="M142.62 114.69 C150.48 117.76, 160.93 119.47, 173.78 122.97 M144.12 116.18 C154.2 117.94, 165.2 121.41, 173.37 124.33" stroke="#ff0000" stroke-width="4" fill="none"></path></g><g transform="translate(882.8543934324484 84.5591945543415) rotate(0 86.36362879713556 61.36262072242366)"><path d="M154.55 98 C159.15 105.47, 166.41 111.63, 173.78 122.97 M156.05 99.48 C162.01 107.09, 168.77 116.5, 173.37 124.33" stroke="#ff0000" stroke-width="4" fill="none"></path></g></g><mask></mask><g stroke-linecap="round"><g transform="translate(444.87911423831747 59.47934197231598) rotate(0 69.13129980154326 0.3871838179356075)"><path d="M-1.43 -2.14 C22.06 -1.25, 116.27 2.23, 139.69 2.92 M3 2.86 C26.19 3.17, 114.99 -1.61, 137.28 -1.17" stroke="#00ff00" stroke-width="4" fill="none"></path></g><g transform="translate(444.87911423831747 59.47934197231598) rotate(0 69.13129980154326 0.3871838179356075)"><path d="M106.25 9.24 C119.1 5.86, 124.93 2.81, 139.51 1.76 M108.33 7.96 C116.02 6.51, 121.98 5.75, 138.58 0.35" stroke="#00ff00" stroke-width="4" fill="none"></path></g><g transform="translate(444.87911423831747 59.47934197231598) rotate(0 69.13129980154326 0.3871838179356075)"><path d="M105.81 -11.28 C118.42 -9.38, 124.36 -7.16, 139.51 1.76 M107.9 -12.55 C115.59 -9.47, 121.65 -5.7, 138.58 0.35" stroke="#00ff00" stroke-width="4" fill="none"></path></g></g><mask></mask><g stroke-linecap="round"><g transform="translate(886.6696259597966 55.965941112550354) rotate(0 102.47030990953522 0.34331955571659023)"><path d="M-0.13 0.72 C34.4 1.1, 172.16 1.16, 206.6 1.32 M-1.66 0.06 C32.73 0.13, 170.92 -0.57, 205.45 -0.63" stroke="#00ff00" stroke-width="4" fill="none"></path></g><g transform="translate(886.6696259597966 55.965941112550354) rotate(0 102.47030990953522 0.34331955571659023)"><path d="M178.5 9.07 C184.92 6.39, 192.51 6.06, 203.87 -1.09 M177.53 9.47 C187.22 6.94, 197.5 3.55, 206.44 -0.17" stroke="#00ff00" stroke-width="4" fill="none"></path></g><g transform="translate(886.6696259597966 55.965941112550354) rotate(0 102.47030990953522 0.34331955571659023)"><path d="M178.43 -11.45 C184.71 -9.02, 192.32 -4.23, 203.87 -1.09 M177.45 -11.05 C187.07 -6.47, 197.38 -2.75, 206.44 -0.17" stroke="#00ff00" stroke-width="4" fill="none"></path></g></g><mask></mask><g stroke-linecap="round"><g transform="translate(34.87911423831747 213.33333333333258) rotate(0 533.9840516049417 -0.48157124518999694)"><path d="M-0.93 0.75 C177.28 0.73, 890.06 2.05, 1068.89 1.56 M3.77 -1.31 C181.52 -2.3, 888.12 -2.77, 1066.05 -2.6" stroke="#ff0000" stroke-width="4" fill="none"></path></g><g transform="translate(34.87911423831747 213.33333333333258) rotate(0 533.9840516049417 -0.48157124518999694)"><path d="M1038.93 6.08 C1048.12 7.82, 1050.88 1, 1067.91 -4.56 M1038.11 8.79 C1045.14 7.14, 1051.85 4.34, 1064.96 -2.9" stroke="#ff0000" stroke-width="4" fill="none"></path></g><g transform="translate(34.87911423831747 213.33333333333258) rotate(0 533.9840516049417 -0.48157124518999694)"><path d="M1038.93 -14.44 C1048.36 -6.78, 1051.12 -7.67, 1067.91 -4.56 M1038.11 -11.73 C1045.23 -9, 1051.95 -7.4, 1064.96 -2.9" stroke="#ff0000" stroke-width="4" fill="none"></path></g></g><mask></mask><g transform="translate(933.212447571651 10) rotate(0 36 22.5)"><text x="0" y="0" font-family="Virgil, Segoe UI Emoji" font-size="36px" fill="#2f9e44" text-anchor="start" style="white-space: pre;" direction="ltr" dominant-baseline="text-before-edge">User</text></g><g transform="translate(919.8791142383161 244.9999999999991) rotate(0 81 22.5)"><text x="0" y="0" font-family="Virgil, Segoe UI Emoji" font-size="36px" fill="#e03131" text-anchor="start" style="white-space: pre;" direction="ltr" dominant-baseline="text-before-edge">UserError</text></g></svg>
